<?xml version="1.0" encoding="utf-8" standalone="no"?>
<!DOCTYPE svg PUBLIC "-//W3C//DTD SVG 1.1//EN"
  "http://www.w3.org/Graphics/SVG/1.1/DTD/svg11.dtd">
<svg xmlns:xlink="http://www.w3.org/1999/xlink" width="704.4pt" height="273.259063pt" viewBox="0 0 704.4 273.259063" xmlns="http://www.w3.org/2000/svg" version="1.1">
 <metadata>
  <rdf:RDF xmlns:dc="http://purl.org/dc/elements/1.1/" xmlns:cc="http://creativecommons.org/ns#" xmlns:rdf="http://www.w3.org/1999/02/22-rdf-syntax-ns#">
   <cc:Work>
    <dc:type rdf:resource="http://purl.org/dc/dcmitype/StillImage"/>
    <dc:date>2026-04-15T09:02:36.173033</dc:date>
    <dc:format>image/svg+xml</dc:format>
    <dc:creator>
     <cc:Agent>
      <dc:title>Matplotlib v3.10.8, https://matplotlib.org/</dc:title>
     </cc:Agent>
    </dc:creator>
   </cc:Work>
  </rdf:RDF>
 </metadata>
 <defs>
  <style type="text/css">*{stroke-linejoin: round; stroke-linecap: butt}</style>
 </defs>
 <g id="figure_1">
  <g id="patch_1">
   <path d="M 0 273.259063 
L 704.4 273.259063 
L 704.4 0 
L 0 0 
z
" style="fill: #0d0d0f"/>
  </g>
  <g id="axes_1">
   <g id="patch_2">
    <path d="M 7.2 239.531563 
L 697.2 239.531563 
L 697.2 26.851563 
L 7.2 26.851563 
z
" style="fill: #0d0d0f"/>
   </g>
   <g id="line2d_1">
    <path d="M 7.2 133.191563 
L 697.2 133.191563 
" clip-path="url(#p6e3aeb6996)" style="fill: none; stroke: #2a2a2e; stroke-linecap: square"/>
   </g>
   <g id="matplotlib.axis_1">
    <g id="xtick_1">
     <g id="line2d_2">
      <defs>
       <path id="m5ab4638bc1" d="M 0 0 
L 0 3.5 
" style="stroke: #e8e4dc; stroke-width: 0.8"/>
      </defs>
      <g>
       <use xlink:href="#m5ab4638bc1" x="38.563636" y="239.531563" style="fill: #e8e4dc; stroke: #e8e4dc; stroke-width: 0.8"/>
      </g>
     </g>
     <g id="text_1">
      <!-- 2010 -->
      <g style="fill: #e8e4dc" transform="translate(28.383636 252.610313) scale(0.08 -0.08)">
       <defs>
        <path id="DejaVuSans-32" d="M 1228 531 
L 3431 531 
L 3431 0 
L 469 0 
L 469 531 
Q 828 903 1448 1529 
Q 2069 2156 2228 2338 
Q 2531 2678 2651 2914 
Q 2772 3150 2772 3378 
Q 2772 3750 2511 3984 
Q 2250 4219 1831 4219 
Q 1534 4219 1204 4116 
Q 875 4013 500 3803 
L 500 4441 
Q 881 4594 1212 4672 
Q 1544 4750 1819 4750 
Q 2544 4750 2975 4387 
Q 3406 4025 3406 3419 
Q 3406 3131 3298 2873 
Q 3191 2616 2906 2266 
Q 2828 2175 2409 1742 
Q 1991 1309 1228 531 
z
" transform="scale(0.015625)"/>
        <path id="DejaVuSans-30" d="M 2034 4250 
Q 1547 4250 1301 3770 
Q 1056 3291 1056 2328 
Q 1056 1369 1301 889 
Q 1547 409 2034 409 
Q 2525 409 2770 889 
Q 3016 1369 3016 2328 
Q 3016 3291 2770 3770 
Q 2525 4250 2034 4250 
z
M 2034 4750 
Q 2819 4750 3233 4129 
Q 3647 3509 3647 2328 
Q 3647 1150 3233 529 
Q 2819 -91 2034 -91 
Q 1250 -91 836 529 
Q 422 1150 422 2328 
Q 422 3509 836 4129 
Q 1250 4750 2034 4750 
z
" transform="scale(0.015625)"/>
        <path id="DejaVuSans-31" d="M 794 531 
L 1825 531 
L 1825 4091 
L 703 3866 
L 703 4441 
L 1819 4666 
L 2450 4666 
L 2450 531 
L 3481 531 
L 3481 0 
L 794 0 
L 794 531 
z
" transform="scale(0.015625)"/>
       </defs>
       <use xlink:href="#DejaVuSans-32"/>
       <use xlink:href="#DejaVuSans-30" transform="translate(63.623047 0)"/>
       <use xlink:href="#DejaVuSans-31" transform="translate(127.246094 0)"/>
       <use xlink:href="#DejaVuSans-30" transform="translate(190.869141 0)"/>
      </g>
     </g>
    </g>
    <g id="xtick_2">
     <g id="line2d_3">
      <g>
       <use xlink:href="#m5ab4638bc1" x="116.972727" y="239.531563" style="fill: #e8e4dc; stroke: #e8e4dc; stroke-width: 0.8"/>
      </g>
     </g>
     <g id="text_2">
      <!-- 2012 -->
      <g style="fill: #e8e4dc" transform="translate(106.792727 252.610313) scale(0.08 -0.08)">
       <use xlink:href="#DejaVuSans-32"/>
       <use xlink:href="#DejaVuSans-30" transform="translate(63.623047 0)"/>
       <use xlink:href="#DejaVuSans-31" transform="translate(127.246094 0)"/>
       <use xlink:href="#DejaVuSans-32" transform="translate(190.869141 0)"/>
      </g>
     </g>
    </g>
    <g id="xtick_3">
     <g id="line2d_4">
      <g>
       <use xlink:href="#m5ab4638bc1" x="195.381818" y="239.531563" style="fill: #e8e4dc; stroke: #e8e4dc; stroke-width: 0.8"/>
      </g>
     </g>
     <g id="text_3">
      <!-- 2014 -->
      <g style="fill: #e8e4dc" transform="translate(185.201818 252.610313) scale(0.08 -0.08)">
       <defs>
        <path id="DejaVuSans-34" d="M 2419 4116 
L 825 1625 
L 2419 1625 
L 2419 4116 
z
M 2253 4666 
L 3047 4666 
L 3047 1625 
L 3713 1625 
L 3713 1100 
L 3047 1100 
L 3047 0 
L 2419 0 
L 2419 1100 
L 313 1100 
L 313 1709 
L 2253 4666 
z
" transform="scale(0.015625)"/>
       </defs>
       <use xlink:href="#DejaVuSans-32"/>
       <use xlink:href="#DejaVuSans-30" transform="translate(63.623047 0)"/>
       <use xlink:href="#DejaVuSans-31" transform="translate(127.246094 0)"/>
       <use xlink:href="#DejaVuSans-34" transform="translate(190.869141 0)"/>
      </g>
     </g>
    </g>
    <g id="xtick_4">
     <g id="line2d_5">
      <g>
       <use xlink:href="#m5ab4638bc1" x="273.790909" y="239.531563" style="fill: #e8e4dc; stroke: #e8e4dc; stroke-width: 0.8"/>
      </g>
     </g>
     <g id="text_4">
      <!-- 2016 -->
      <g style="fill: #e8e4dc" transform="translate(263.610909 252.610313) scale(0.08 -0.08)">
       <defs>
        <path id="DejaVuSans-36" d="M 2113 2584 
Q 1688 2584 1439 2293 
Q 1191 2003 1191 1497 
Q 1191 994 1439 701 
Q 1688 409 2113 409 
Q 2538 409 2786 701 
Q 3034 994 3034 1497 
Q 3034 2003 2786 2293 
Q 2538 2584 2113 2584 
z
M 3366 4563 
L 3366 3988 
Q 3128 4100 2886 4159 
Q 2644 4219 2406 4219 
Q 1781 4219 1451 3797 
Q 1122 3375 1075 2522 
Q 1259 2794 1537 2939 
Q 1816 3084 2150 3084 
Q 2853 3084 3261 2657 
Q 3669 2231 3669 1497 
Q 3669 778 3244 343 
Q 2819 -91 2113 -91 
Q 1303 -91 875 529 
Q 447 1150 447 2328 
Q 447 3434 972 4092 
Q 1497 4750 2381 4750 
Q 2619 4750 2861 4703 
Q 3103 4656 3366 4563 
z
" transform="scale(0.015625)"/>
       </defs>
       <use xlink:href="#DejaVuSans-32"/>
       <use xlink:href="#DejaVuSans-30" transform="translate(63.623047 0)"/>
       <use xlink:href="#DejaVuSans-31" transform="translate(127.246094 0)"/>
       <use xlink:href="#DejaVuSans-36" transform="translate(190.869141 0)"/>
      </g>
     </g>
    </g>
    <g id="xtick_5">
     <g id="line2d_6">
      <g>
       <use xlink:href="#m5ab4638bc1" x="352.2" y="239.531563" style="fill: #e8e4dc; stroke: #e8e4dc; stroke-width: 0.8"/>
      </g>
     </g>
     <g id="text_5">
      <!-- 2018 -->
      <g style="fill: #e8e4dc" transform="translate(342.02 252.610313) scale(0.08 -0.08)">
       <defs>
        <path id="DejaVuSans-38" d="M 2034 2216 
Q 1584 2216 1326 1975 
Q 1069 1734 1069 1313 
Q 1069 891 1326 650 
Q 1584 409 2034 409 
Q 2484 409 2743 651 
Q 3003 894 3003 1313 
Q 3003 1734 2745 1975 
Q 2488 2216 2034 2216 
z
M 1403 2484 
Q 997 2584 770 2862 
Q 544 3141 544 3541 
Q 544 4100 942 4425 
Q 1341 4750 2034 4750 
Q 2731 4750 3128 4425 
Q 3525 4100 3525 3541 
Q 3525 3141 3298 2862 
Q 3072 2584 2669 2484 
Q 3125 2378 3379 2068 
Q 3634 1759 3634 1313 
Q 3634 634 3220 271 
Q 2806 -91 2034 -91 
Q 1263 -91 848 271 
Q 434 634 434 1313 
Q 434 1759 690 2068 
Q 947 2378 1403 2484 
z
M 1172 3481 
Q 1172 3119 1398 2916 
Q 1625 2713 2034 2713 
Q 2441 2713 2670 2916 
Q 2900 3119 2900 3481 
Q 2900 3844 2670 4047 
Q 2441 4250 2034 4250 
Q 1625 4250 1398 4047 
Q 1172 3844 1172 3481 
z
" transform="scale(0.015625)"/>
       </defs>
       <use xlink:href="#DejaVuSans-32"/>
       <use xlink:href="#DejaVuSans-30" transform="translate(63.623047 0)"/>
       <use xlink:href="#DejaVuSans-31" transform="translate(127.246094 0)"/>
       <use xlink:href="#DejaVuSans-38" transform="translate(190.869141 0)"/>
      </g>
     </g>
    </g>
    <g id="xtick_6">
     <g id="line2d_7">
      <g>
       <use xlink:href="#m5ab4638bc1" x="430.609091" y="239.531563" style="fill: #e8e4dc; stroke: #e8e4dc; stroke-width: 0.8"/>
      </g>
     </g>
     <g id="text_6">
      <!-- 2020 -->
      <g style="fill: #e8e4dc" transform="translate(420.429091 252.610313) scale(0.08 -0.08)">
       <use xlink:href="#DejaVuSans-32"/>
       <use xlink:href="#DejaVuSans-30" transform="translate(63.623047 0)"/>
       <use xlink:href="#DejaVuSans-32" transform="translate(127.246094 0)"/>
       <use xlink:href="#DejaVuSans-30" transform="translate(190.869141 0)"/>
      </g>
     </g>
    </g>
    <g id="xtick_7">
     <g id="line2d_8">
      <g>
       <use xlink:href="#m5ab4638bc1" x="509.018182" y="239.531563" style="fill: #e8e4dc; stroke: #e8e4dc; stroke-width: 0.8"/>
      </g>
     </g>
     <g id="text_7">
      <!-- 2022 -->
      <g style="fill: #e8e4dc" transform="translate(498.838182 252.610313) scale(0.08 -0.08)">
       <use xlink:href="#DejaVuSans-32"/>
       <use xlink:href="#DejaVuSans-30" transform="translate(63.623047 0)"/>
       <use xlink:href="#DejaVuSans-32" transform="translate(127.246094 0)"/>
       <use xlink:href="#DejaVuSans-32" transform="translate(190.869141 0)"/>
      </g>
     </g>
    </g>
    <g id="xtick_8">
     <g id="line2d_9">
      <g>
       <use xlink:href="#m5ab4638bc1" x="587.427273" y="239.531563" style="fill: #e8e4dc; stroke: #e8e4dc; stroke-width: 0.8"/>
      </g>
     </g>
     <g id="text_8">
      <!-- 2024 -->
      <g style="fill: #e8e4dc" transform="translate(577.247273 252.610313) scale(0.08 -0.08)">
       <use xlink:href="#DejaVuSans-32"/>
       <use xlink:href="#DejaVuSans-30" transform="translate(63.623047 0)"/>
       <use xlink:href="#DejaVuSans-32" transform="translate(127.246094 0)"/>
       <use xlink:href="#DejaVuSans-34" transform="translate(190.869141 0)"/>
      </g>
     </g>
    </g>
    <g id="xtick_9">
     <g id="line2d_10">
      <g>
       <use xlink:href="#m5ab4638bc1" x="665.836364" y="239.531563" style="fill: #e8e4dc; stroke: #e8e4dc; stroke-width: 0.8"/>
      </g>
     </g>
     <g id="text_9">
      <!-- 2026 -->
      <g style="fill: #e8e4dc" transform="translate(655.656364 252.610313) scale(0.08 -0.08)">
       <use xlink:href="#DejaVuSans-32"/>
       <use xlink:href="#DejaVuSans-30" transform="translate(63.623047 0)"/>
       <use xlink:href="#DejaVuSans-32" transform="translate(127.246094 0)"/>
       <use xlink:href="#DejaVuSans-36" transform="translate(190.869141 0)"/>
      </g>
     </g>
    </g>
    <g id="text_10">
     <!-- Year -->
     <g style="fill: #e8e4dc" transform="translate(342.5675 264.395313) scale(0.08 -0.08)">
      <defs>
       <path id="DejaVuSansMono-59" d="M 116 4666 
L 788 4666 
L 1925 2606 
L 3059 4666 
L 3738 4666 
L 2241 2094 
L 2241 0 
L 1606 0 
L 1606 2094 
L 116 4666 
z
" transform="scale(0.015625)"/>
       <path id="DejaVuSansMono-65" d="M 3475 1894 
L 3475 1613 
L 984 1613 
L 984 1594 
Q 984 1022 1282 709 
Q 1581 397 2125 397 
Q 2400 397 2700 484 
Q 3000 572 3341 750 
L 3341 178 
Q 3013 44 2708 -23 
Q 2403 -91 2119 -91 
Q 1303 -91 843 398 
Q 384 888 384 1747 
Q 384 2584 834 3084 
Q 1284 3584 2034 3584 
Q 2703 3584 3089 3131 
Q 3475 2678 3475 1894 
z
M 2900 2063 
Q 2888 2569 2661 2833 
Q 2434 3097 2009 3097 
Q 1594 3097 1325 2822 
Q 1056 2547 1006 2059 
L 2900 2063 
z
" transform="scale(0.015625)"/>
       <path id="DejaVuSansMono-61" d="M 2194 1759 
L 2003 1759 
Q 1500 1759 1245 1582 
Q 991 1406 991 1056 
Q 991 741 1181 566 
Q 1372 391 1709 391 
Q 2184 391 2456 720 
Q 2728 1050 2731 1631 
L 2731 1759 
L 2194 1759 
z
M 3309 1997 
L 3309 0 
L 2731 0 
L 2731 519 
Q 2547 206 2267 57 
Q 1988 -91 1588 -91 
Q 1053 -91 734 211 
Q 416 513 416 1019 
Q 416 1603 808 1906 
Q 1200 2209 1959 2209 
L 2731 2209 
L 2731 2300 
Q 2728 2719 2518 2908 
Q 2309 3097 1850 3097 
Q 1556 3097 1256 3012 
Q 956 2928 672 2766 
L 672 3341 
Q 991 3463 1283 3523 
Q 1575 3584 1850 3584 
Q 2284 3584 2592 3456 
Q 2900 3328 3091 3072 
Q 3209 2916 3259 2686 
Q 3309 2456 3309 1997 
z
" transform="scale(0.015625)"/>
       <path id="DejaVuSansMono-72" d="M 3609 2778 
Q 3425 2922 3234 2987 
Q 3044 3053 2816 3053 
Q 2278 3053 1993 2715 
Q 1709 2378 1709 1741 
L 1709 0 
L 1131 0 
L 1131 3500 
L 1709 3500 
L 1709 2816 
Q 1853 3188 2151 3386 
Q 2450 3584 2859 3584 
Q 3072 3584 3256 3531 
Q 3441 3478 3609 3366 
L 3609 2778 
z
" transform="scale(0.015625)"/>
      </defs>
      <use xlink:href="#DejaVuSansMono-59"/>
      <use xlink:href="#DejaVuSansMono-65" transform="translate(60.205078 0)"/>
      <use xlink:href="#DejaVuSansMono-61" transform="translate(120.410156 0)"/>
      <use xlink:href="#DejaVuSansMono-72" transform="translate(180.615234 0)"/>
     </g>
    </g>
   </g>
   <g id="matplotlib.axis_2"/>
   <g id="patch_3">
    <path d="M 7.2 239.531563 
L 7.2 26.851563 
" style="fill: none; stroke: #2a2a2e; stroke-width: 0.8; stroke-linejoin: miter; stroke-linecap: square"/>
   </g>
   <g id="patch_4">
    <path d="M 697.2 239.531563 
L 697.2 26.851563 
" style="fill: none; stroke: #2a2a2e; stroke-width: 0.8; stroke-linejoin: miter; stroke-linecap: square"/>
   </g>
   <g id="patch_5">
    <path d="M 7.2 239.531563 
L 697.2 239.531563 
" style="fill: none; stroke: #2a2a2e; stroke-width: 0.8; stroke-linejoin: miter; stroke-linecap: square"/>
   </g>
   <g id="patch_6">
    <path d="M 7.2 26.851563 
L 697.2 26.851563 
" style="fill: none; stroke: #2a2a2e; stroke-width: 0.8; stroke-linejoin: miter; stroke-linecap: square"/>
   </g>
   <g id="PathCollection_1">
    <defs>
     <path id="ma2f6802e6a" d="M -4.472136 4.472136 
L 4.472136 4.472136 
L 4.472136 -4.472136 
L -4.472136 -4.472136 
z
" style="stroke: #6b7280; stroke-opacity: 0.8"/>
    </defs>
    <g clip-path="url(#p6e3aeb6996)">
     <use xlink:href="#ma2f6802e6a" x="38.563636" y="133.191563" style="fill: #6b7280; fill-opacity: 0.8; stroke: #6b7280; stroke-opacity: 0.8"/>
    </g>
   </g>
   <g id="PathCollection_2">
    <defs>
     <path id="mcd949ec916" d="M 0 4.472136 
C 1.186024 4.472136 2.323632 4.000923 3.162278 3.162278 
C 4.000923 2.323632 4.472136 1.186024 4.472136 0 
C 4.472136 -1.186024 4.000923 -2.323632 3.162278 -3.162278 
C 2.323632 -4.000923 1.186024 -4.472136 0 -4.472136 
C -1.186024 -4.472136 -2.323632 -4.000923 -3.162278 -3.162278 
C -4.000923 -2.323632 -4.472136 -1.186024 -4.472136 0 
C -4.472136 1.186024 -4.000923 2.323632 -3.162278 3.162278 
C -2.323632 4.000923 -1.186024 4.472136 0 4.472136 
z
" style="stroke: #6b7280; stroke-opacity: 0.8"/>
    </defs>
    <g clip-path="url(#p6e3aeb6996)">
     <use xlink:href="#mcd949ec916" x="587.427273" y="133.191563" style="fill: #6b7280; fill-opacity: 0.8; stroke: #6b7280; stroke-opacity: 0.8"/>
    </g>
   </g>
   <g id="PathCollection_3">
    <g clip-path="url(#p6e3aeb6996)">
     <use xlink:href="#mcd949ec916" x="430.609091" y="133.191563" style="fill: #6b7280; fill-opacity: 0.8; stroke: #6b7280; stroke-opacity: 0.8"/>
    </g>
   </g>
   <g id="PathCollection_4">
    <g clip-path="url(#p6e3aeb6996)">
     <use xlink:href="#mcd949ec916" x="587.427273" y="133.191563" style="fill: #6b7280; fill-opacity: 0.8; stroke: #6b7280; stroke-opacity: 0.8"/>
    </g>
   </g>
   <g id="PathCollection_5">
    <g clip-path="url(#p6e3aeb6996)">
     <use xlink:href="#mcd949ec916" x="626.631818" y="133.191563" style="fill: #6b7280; fill-opacity: 0.8; stroke: #6b7280; stroke-opacity: 0.8"/>
    </g>
   </g>
   <g id="PathCollection_6">
    <g clip-path="url(#p6e3aeb6996)">
     <use xlink:href="#ma2f6802e6a" x="626.631818" y="133.191563" style="fill: #6b7280; fill-opacity: 0.8; stroke: #6b7280; stroke-opacity: 0.8"/>
    </g>
   </g>
   <g id="PathCollection_7">
    <defs>
     <path id="mf4473c3bf9" d="M -0 6.324555 
L 6.324555 0 
L 0 -6.324555 
L -6.324555 -0 
z
" style="stroke: #6b7280; stroke-opacity: 0.8"/>
    </defs>
    <g clip-path="url(#p6e3aeb6996)">
     <use xlink:href="#mf4473c3bf9" x="665.836364" y="133.191563" style="fill: #6b7280; fill-opacity: 0.8; stroke: #6b7280; stroke-opacity: 0.8"/>
    </g>
   </g>
   <g id="PathCollection_8">
    <g clip-path="url(#p6e3aeb6996)">
     <use xlink:href="#mf4473c3bf9" x="626.631818" y="133.191563" style="fill: #6b7280; fill-opacity: 0.8; stroke: #6b7280; stroke-opacity: 0.8"/>
    </g>
   </g>
   <g id="PathCollection_9">
    <g clip-path="url(#p6e3aeb6996)">
     <use xlink:href="#mcd949ec916" x="626.631818" y="133.191563" style="fill: #6b7280; fill-opacity: 0.8; stroke: #6b7280; stroke-opacity: 0.8"/>
    </g>
   </g>
   <g id="PathCollection_10">
    <g clip-path="url(#p6e3aeb6996)">
     <use xlink:href="#ma2f6802e6a" x="626.631818" y="133.191563" style="fill: #6b7280; fill-opacity: 0.8; stroke: #6b7280; stroke-opacity: 0.8"/>
    </g>
   </g>
   <g id="PathCollection_11">
    <g clip-path="url(#p6e3aeb6996)">
     <use xlink:href="#ma2f6802e6a" x="626.631818" y="133.191563" style="fill: #6b7280; fill-opacity: 0.8; stroke: #6b7280; stroke-opacity: 0.8"/>
    </g>
   </g>
   <g id="PathCollection_12">
    <g clip-path="url(#p6e3aeb6996)">
     <use xlink:href="#mf4473c3bf9" x="626.631818" y="133.191563" style="fill: #6b7280; fill-opacity: 0.8; stroke: #6b7280; stroke-opacity: 0.8"/>
    </g>
   </g>
   <g id="PathCollection_13">
    <g clip-path="url(#p6e3aeb6996)">
     <use xlink:href="#ma2f6802e6a" x="626.631818" y="133.191563" style="fill: #6b7280; fill-opacity: 0.8; stroke: #6b7280; stroke-opacity: 0.8"/>
    </g>
   </g>
   <g id="PathCollection_14">
    <g clip-path="url(#p6e3aeb6996)">
     <use xlink:href="#ma2f6802e6a" x="626.631818" y="133.191563" style="fill: #6b7280; fill-opacity: 0.8; stroke: #6b7280; stroke-opacity: 0.8"/>
    </g>
   </g>
   <g id="PathCollection_15">
    <g clip-path="url(#p6e3aeb6996)">
     <use xlink:href="#ma2f6802e6a" x="626.631818" y="133.191563" style="fill: #6b7280; fill-opacity: 0.8; stroke: #6b7280; stroke-opacity: 0.8"/>
    </g>
   </g>
   <g id="PathCollection_16">
    <g clip-path="url(#p6e3aeb6996)">
     <use xlink:href="#mf4473c3bf9" x="626.631818" y="133.191563" style="fill: #6b7280; fill-opacity: 0.8; stroke: #6b7280; stroke-opacity: 0.8"/>
    </g>
   </g>
   <g id="PathCollection_17">
    <g clip-path="url(#p6e3aeb6996)">
     <use xlink:href="#ma2f6802e6a" x="626.631818" y="133.191563" style="fill: #6b7280; fill-opacity: 0.8; stroke: #6b7280; stroke-opacity: 0.8"/>
    </g>
   </g>
   <g id="PathCollection_18">
    <g clip-path="url(#p6e3aeb6996)">
     <use xlink:href="#mf4473c3bf9" x="626.631818" y="133.191563" style="fill: #6b7280; fill-opacity: 0.8; stroke: #6b7280; stroke-opacity: 0.8"/>
    </g>
   </g>
   <g id="PathCollection_19">
    <g clip-path="url(#p6e3aeb6996)">
     <use xlink:href="#ma2f6802e6a" x="626.631818" y="133.191563" style="fill: #6b7280; fill-opacity: 0.8; stroke: #6b7280; stroke-opacity: 0.8"/>
    </g>
   </g>
   <g id="PathCollection_20">
    <g clip-path="url(#p6e3aeb6996)">
     <use xlink:href="#ma2f6802e6a" x="626.631818" y="133.191563" style="fill: #6b7280; fill-opacity: 0.8; stroke: #6b7280; stroke-opacity: 0.8"/>
    </g>
   </g>
   <g id="PathCollection_21">
    <g clip-path="url(#p6e3aeb6996)">
     <use xlink:href="#ma2f6802e6a" x="626.631818" y="133.191563" style="fill: #6b7280; fill-opacity: 0.8; stroke: #6b7280; stroke-opacity: 0.8"/>
    </g>
   </g>
   <g id="PathCollection_22">
    <g clip-path="url(#p6e3aeb6996)">
     <use xlink:href="#ma2f6802e6a" x="626.631818" y="133.191563" style="fill: #6b7280; fill-opacity: 0.8; stroke: #6b7280; stroke-opacity: 0.8"/>
    </g>
   </g>
   <g id="PathCollection_23">
    <g clip-path="url(#p6e3aeb6996)">
     <use xlink:href="#ma2f6802e6a" x="626.631818" y="133.191563" style="fill: #6b7280; fill-opacity: 0.8; stroke: #6b7280; stroke-opacity: 0.8"/>
    </g>
   </g>
   <g id="PathCollection_24">
    <g clip-path="url(#p6e3aeb6996)">
     <use xlink:href="#ma2f6802e6a" x="626.631818" y="133.191563" style="fill: #6b7280; fill-opacity: 0.8; stroke: #6b7280; stroke-opacity: 0.8"/>
    </g>
   </g>
   <g id="PathCollection_25">
    <g clip-path="url(#p6e3aeb6996)">
     <use xlink:href="#ma2f6802e6a" x="626.631818" y="133.191563" style="fill: #6b7280; fill-opacity: 0.8; stroke: #6b7280; stroke-opacity: 0.8"/>
    </g>
   </g>
   <g id="PathCollection_26">
    <g clip-path="url(#p6e3aeb6996)">
     <use xlink:href="#ma2f6802e6a" x="626.631818" y="133.191563" style="fill: #6b7280; fill-opacity: 0.8; stroke: #6b7280; stroke-opacity: 0.8"/>
    </g>
   </g>
   <g id="PathCollection_27">
    <g clip-path="url(#p6e3aeb6996)">
     <use xlink:href="#ma2f6802e6a" x="626.631818" y="133.191563" style="fill: #6b7280; fill-opacity: 0.8; stroke: #6b7280; stroke-opacity: 0.8"/>
    </g>
   </g>
   <g id="PathCollection_28">
    <g clip-path="url(#p6e3aeb6996)">
     <use xlink:href="#ma2f6802e6a" x="665.836364" y="133.191563" style="fill: #6b7280; fill-opacity: 0.8; stroke: #6b7280; stroke-opacity: 0.8"/>
    </g>
   </g>
   <g id="PathCollection_29">
    <g clip-path="url(#p6e3aeb6996)">
     <use xlink:href="#mf4473c3bf9" x="587.427273" y="133.191563" style="fill: #6b7280; fill-opacity: 0.8; stroke: #6b7280; stroke-opacity: 0.8"/>
    </g>
   </g>
   <g id="PathCollection_30">
    <g clip-path="url(#p6e3aeb6996)">
     <use xlink:href="#ma2f6802e6a" x="587.427273" y="133.191563" style="fill: #6b7280; fill-opacity: 0.8; stroke: #6b7280; stroke-opacity: 0.8"/>
    </g>
   </g>
   <g id="PathCollection_31">
    <g clip-path="url(#p6e3aeb6996)">
     <use xlink:href="#ma2f6802e6a" x="626.631818" y="133.191563" style="fill: #6b7280; fill-opacity: 0.8; stroke: #6b7280; stroke-opacity: 0.8"/>
    </g>
   </g>
   <g id="PathCollection_32">
    <g clip-path="url(#p6e3aeb6996)">
     <use xlink:href="#ma2f6802e6a" x="587.427273" y="133.191563" style="fill: #6b7280; fill-opacity: 0.8; stroke: #6b7280; stroke-opacity: 0.8"/>
    </g>
   </g>
   <g id="PathCollection_33">
    <g clip-path="url(#p6e3aeb6996)">
     <use xlink:href="#ma2f6802e6a" x="626.631818" y="133.191563" style="fill: #6b7280; fill-opacity: 0.8; stroke: #6b7280; stroke-opacity: 0.8"/>
    </g>
   </g>
   <g id="PathCollection_34">
    <g clip-path="url(#p6e3aeb6996)">
     <use xlink:href="#ma2f6802e6a" x="587.427273" y="133.191563" style="fill: #6b7280; fill-opacity: 0.8; stroke: #6b7280; stroke-opacity: 0.8"/>
    </g>
   </g>
   <g id="PathCollection_35">
    <g clip-path="url(#p6e3aeb6996)">
     <use xlink:href="#ma2f6802e6a" x="626.631818" y="133.191563" style="fill: #6b7280; fill-opacity: 0.8; stroke: #6b7280; stroke-opacity: 0.8"/>
    </g>
   </g>
   <g id="PathCollection_36">
    <g clip-path="url(#p6e3aeb6996)">
     <use xlink:href="#ma2f6802e6a" x="587.427273" y="133.191563" style="fill: #6b7280; fill-opacity: 0.8; stroke: #6b7280; stroke-opacity: 0.8"/>
    </g>
   </g>
   <g id="PathCollection_37">
    <g clip-path="url(#p6e3aeb6996)">
     <use xlink:href="#mf4473c3bf9" x="665.836364" y="133.191563" style="fill: #6b7280; fill-opacity: 0.8; stroke: #6b7280; stroke-opacity: 0.8"/>
    </g>
   </g>
   <g id="PathCollection_38">
    <g clip-path="url(#p6e3aeb6996)">
     <use xlink:href="#mcd949ec916" x="587.427273" y="133.191563" style="fill: #6b7280; fill-opacity: 0.8; stroke: #6b7280; stroke-opacity: 0.8"/>
    </g>
   </g>
   <g id="PathCollection_39">
    <g clip-path="url(#p6e3aeb6996)">
     <use xlink:href="#ma2f6802e6a" x="587.427273" y="133.191563" style="fill: #6b7280; fill-opacity: 0.8; stroke: #6b7280; stroke-opacity: 0.8"/>
    </g>
   </g>
   <g id="text_11">
    <!-- Documents by year — ● strategy  ◆ evaluation -->
    <g style="fill: #e8e4dc" transform="translate(219.753125 14.851562) scale(0.1 -0.1)">
     <defs>
      <path id="DejaVuSansMono-44" d="M 1363 519 
Q 2159 519 2475 911 
Q 2791 1303 2791 2328 
Q 2791 3363 2477 3755 
Q 2163 4147 1363 4147 
L 1063 4147 
L 1063 519 
L 1363 519 
z
M 1375 4666 
Q 2444 4666 2950 4097 
Q 3456 3528 3456 2328 
Q 3456 1134 2950 567 
Q 2444 0 1375 0 
L 428 0 
L 428 4666 
L 1375 4666 
z
" transform="scale(0.015625)"/>
      <path id="DejaVuSansMono-6f" d="M 1925 3097 
Q 1488 3097 1263 2756 
Q 1038 2416 1038 1747 
Q 1038 1081 1263 739 
Q 1488 397 1925 397 
Q 2366 397 2591 739 
Q 2816 1081 2816 1747 
Q 2816 2416 2591 2756 
Q 2366 3097 1925 3097 
z
M 1925 3584 
Q 2653 3584 3039 3112 
Q 3425 2641 3425 1747 
Q 3425 850 3040 379 
Q 2656 -91 1925 -91 
Q 1197 -91 812 379 
Q 428 850 428 1747 
Q 428 2641 812 3112 
Q 1197 3584 1925 3584 
z
" transform="scale(0.015625)"/>
      <path id="DejaVuSansMono-63" d="M 3316 178 
Q 3084 44 2839 -23 
Q 2594 -91 2338 -91 
Q 1525 -91 1067 396 
Q 609 884 609 1747 
Q 609 2609 1067 3096 
Q 1525 3584 2338 3584 
Q 2591 3584 2831 3518 
Q 3072 3453 3316 3316 
L 3316 2713 
Q 3088 2916 2858 3006 
Q 2628 3097 2338 3097 
Q 1797 3097 1506 2747 
Q 1216 2397 1216 1747 
Q 1216 1100 1508 748 
Q 1800 397 2338 397 
Q 2638 397 2875 489 
Q 3113 581 3316 775 
L 3316 178 
z
" transform="scale(0.015625)"/>
      <path id="DejaVuSansMono-75" d="M 609 1325 
L 609 3494 
L 1184 3494 
L 1184 1325 
Q 1184 853 1351 631 
Q 1519 409 1869 409 
Q 2275 409 2490 695 
Q 2706 981 2706 1516 
L 2706 3494 
L 3284 3494 
L 3284 0 
L 2706 0 
L 2706 525 
Q 2553 222 2289 65 
Q 2025 -91 1672 -91 
Q 1134 -91 871 261 
Q 609 613 609 1325 
z
" transform="scale(0.015625)"/>
      <path id="DejaVuSansMono-6d" d="M 2113 3144 
Q 2219 3369 2383 3476 
Q 2547 3584 2778 3584 
Q 3200 3584 3373 3257 
Q 3547 2931 3547 2028 
L 3547 0 
L 3022 0 
L 3022 2003 
Q 3022 2744 2939 2923 
Q 2856 3103 2638 3103 
Q 2388 3103 2295 2911 
Q 2203 2719 2203 2003 
L 2203 0 
L 1678 0 
L 1678 2003 
Q 1678 2753 1589 2928 
Q 1500 3103 1269 3103 
Q 1041 3103 952 2911 
Q 863 2719 863 2003 
L 863 0 
L 341 0 
L 341 3500 
L 863 3500 
L 863 3200 
Q 966 3388 1120 3486 
Q 1275 3584 1472 3584 
Q 1709 3584 1867 3475 
Q 2025 3366 2113 3144 
z
" transform="scale(0.015625)"/>
      <path id="DejaVuSansMono-6e" d="M 3284 2169 
L 3284 0 
L 2706 0 
L 2706 2169 
Q 2706 2641 2540 2862 
Q 2375 3084 2022 3084 
Q 1619 3084 1401 2798 
Q 1184 2513 1184 1978 
L 1184 0 
L 609 0 
L 609 3500 
L 1184 3500 
L 1184 2975 
Q 1338 3275 1600 3429 
Q 1863 3584 2222 3584 
Q 2756 3584 3020 3232 
Q 3284 2881 3284 2169 
z
" transform="scale(0.015625)"/>
      <path id="DejaVuSansMono-74" d="M 1919 4494 
L 1919 3500 
L 3225 3500 
L 3225 3053 
L 1919 3053 
L 1919 1153 
Q 1919 766 2066 612 
Q 2213 459 2578 459 
L 3225 459 
L 3225 0 
L 2522 0 
Q 1875 0 1609 259 
Q 1344 519 1344 1153 
L 1344 3053 
L 409 3053 
L 409 3500 
L 1344 3500 
L 1344 4494 
L 1919 4494 
z
" transform="scale(0.015625)"/>
      <path id="DejaVuSansMono-73" d="M 3041 3378 
L 3041 2816 
Q 2794 2959 2544 3031 
Q 2294 3103 2034 3103 
Q 1644 3103 1451 2976 
Q 1259 2850 1259 2591 
Q 1259 2356 1403 2240 
Q 1547 2125 2119 2016 
L 2350 1972 
Q 2778 1891 2998 1647 
Q 3219 1403 3219 1013 
Q 3219 494 2850 201 
Q 2481 -91 1825 -91 
Q 1566 -91 1281 -36 
Q 997 19 666 128 
L 666 722 
Q 988 556 1281 473 
Q 1575 391 1838 391 
Q 2219 391 2428 545 
Q 2638 700 2638 978 
Q 2638 1378 1872 1531 
L 1847 1538 
L 1631 1581 
Q 1134 1678 906 1908 
Q 678 2138 678 2534 
Q 678 3038 1018 3311 
Q 1359 3584 1991 3584 
Q 2272 3584 2531 3532 
Q 2791 3481 3041 3378 
z
" transform="scale(0.015625)"/>
      <path id="DejaVuSansMono-20" transform="scale(0.015625)"/>
      <path id="DejaVuSansMono-62" d="M 2869 1747 
Q 2869 2416 2656 2756 
Q 2444 3097 2028 3097 
Q 1609 3097 1393 2755 
Q 1178 2413 1178 1747 
Q 1178 1084 1393 740 
Q 1609 397 2028 397 
Q 2444 397 2656 737 
Q 2869 1078 2869 1747 
z
M 1178 3053 
Q 1316 3309 1558 3446 
Q 1800 3584 2119 3584 
Q 2750 3584 3112 3098 
Q 3475 2613 3475 1759 
Q 3475 894 3111 401 
Q 2747 -91 2113 -91 
Q 1800 -91 1561 45 
Q 1322 181 1178 441 
L 1178 0 
L 603 0 
L 603 4863 
L 1178 4863 
L 1178 3053 
z
" transform="scale(0.015625)"/>
      <path id="DejaVuSansMono-79" d="M 2681 1125 
Q 2538 759 2316 163 
Q 2006 -663 1900 -844 
Q 1756 -1088 1540 -1209 
Q 1325 -1331 1038 -1331 
L 575 -1331 
L 575 -850 
L 916 -850 
Q 1169 -850 1312 -703 
Q 1456 -556 1678 56 
L 325 3500 
L 934 3500 
L 1972 763 
L 2994 3500 
L 3603 3500 
L 2681 1125 
z
" transform="scale(0.015625)"/>
      <path id="DejaVuSansMono-2014" d="M 0 1978 
L 3853 1978 
L 3853 1538 
L 0 1538 
L 0 1978 
z
" transform="scale(0.015625)"/>
      <path id="DejaVuSansMono-25cf" d="M 972 13 
Q 19 563 19 1663 
Q 19 2763 972 3313 
Q 1447 3588 1925 3588 
Q 2400 3588 2878 3313 
Q 3834 2763 3834 1663 
Q 3834 563 2878 13 
Q 2400 -263 1925 -263 
Q 1447 -263 972 13 
z
" transform="scale(0.015625)"/>
      <path id="DejaVuSansMono-67" d="M 2681 1778 
Q 2681 2425 2470 2761 
Q 2259 3097 1856 3097 
Q 1434 3097 1212 2761 
Q 991 2425 991 1778 
Q 991 1131 1214 792 
Q 1438 453 1863 453 
Q 2259 453 2470 793 
Q 2681 1134 2681 1778 
z
M 3256 225 
Q 3256 -563 2884 -969 
Q 2513 -1375 1791 -1375 
Q 1553 -1375 1293 -1331 
Q 1034 -1288 775 -1203 
L 775 -634 
Q 1081 -778 1331 -847 
Q 1581 -916 1791 -916 
Q 2256 -916 2468 -662 
Q 2681 -409 2681 141 
L 2681 166 
L 2681 556 
Q 2544 263 2306 119 
Q 2069 -25 1728 -25 
Q 1116 -25 750 465 
Q 384 956 384 1778 
Q 384 2603 750 3093 
Q 1116 3584 1728 3584 
Q 2066 3584 2300 3450 
Q 2534 3316 2681 3034 
L 2681 3488 
L 3256 3488 
L 3256 225 
z
" transform="scale(0.015625)"/>
      <path id="DejaVuSansMono-25c6" d="M 19 1663 
L 1925 3569 
L 3834 1663 
L 1925 -244 
L 19 1663 
z
" transform="scale(0.015625)"/>
      <path id="DejaVuSansMono-76" d="M 313 3500 
L 909 3500 
L 1925 563 
L 2944 3500 
L 3541 3500 
L 2297 0 
L 1556 0 
L 313 3500 
z
" transform="scale(0.015625)"/>
      <path id="DejaVuSansMono-6c" d="M 1997 1269 
Q 1997 881 2139 684 
Q 2281 488 2559 488 
L 3231 488 
L 3231 0 
L 2503 0 
Q 1988 0 1705 331 
Q 1422 663 1422 1269 
L 1422 4447 
L 500 4447 
L 500 4897 
L 1997 4897 
L 1997 1269 
z
" transform="scale(0.015625)"/>
      <path id="DejaVuSansMono-69" d="M 800 3500 
L 2272 3500 
L 2272 447 
L 3413 447 
L 3413 0 
L 556 0 
L 556 447 
L 1697 447 
L 1697 3053 
L 800 3053 
L 800 3500 
z
M 1697 4863 
L 2272 4863 
L 2272 4134 
L 1697 4134 
L 1697 4863 
z
" transform="scale(0.015625)"/>
     </defs>
     <use xlink:href="#DejaVuSansMono-44"/>
     <use xlink:href="#DejaVuSansMono-6f" transform="translate(60.205078 0)"/>
     <use xlink:href="#DejaVuSansMono-63" transform="translate(120.410156 0)"/>
     <use xlink:href="#DejaVuSansMono-75" transform="translate(180.615234 0)"/>
     <use xlink:href="#DejaVuSansMono-6d" transform="translate(240.820312 0)"/>
     <use xlink:href="#DejaVuSansMono-65" transform="translate(301.025391 0)"/>
     <use xlink:href="#DejaVuSansMono-6e" transform="translate(361.230469 0)"/>
     <use xlink:href="#DejaVuSansMono-74" transform="translate(421.435547 0)"/>
     <use xlink:href="#DejaVuSansMono-73" transform="translate(481.640625 0)"/>
     <use xlink:href="#DejaVuSansMono-20" transform="translate(541.845703 0)"/>
     <use xlink:href="#DejaVuSansMono-62" transform="translate(602.050781 0)"/>
     <use xlink:href="#DejaVuSansMono-79" transform="translate(662.255859 0)"/>
     <use xlink:href="#DejaVuSansMono-20" transform="translate(722.460938 0)"/>
     <use xlink:href="#DejaVuSansMono-79" transform="translate(782.666016 0)"/>
     <use xlink:href="#DejaVuSansMono-65" transform="translate(842.871094 0)"/>
     <use xlink:href="#DejaVuSansMono-61" transform="translate(903.076172 0)"/>
     <use xlink:href="#DejaVuSansMono-72" transform="translate(963.28125 0)"/>
     <use xlink:href="#DejaVuSansMono-20" transform="translate(1023.486328 0)"/>
     <use xlink:href="#DejaVuSansMono-2014" transform="translate(1083.691406 0)"/>
     <use xlink:href="#DejaVuSansMono-20" transform="translate(1143.896484 0)"/>
     <use xlink:href="#DejaVuSansMono-25cf" transform="translate(1204.101562 0)"/>
     <use xlink:href="#DejaVuSansMono-20" transform="translate(1264.306641 0)"/>
     <use xlink:href="#DejaVuSansMono-73" transform="translate(1324.511719 0)"/>
     <use xlink:href="#DejaVuSansMono-74" transform="translate(1384.716797 0)"/>
     <use xlink:href="#DejaVuSansMono-72" transform="translate(1444.921875 0)"/>
     <use xlink:href="#DejaVuSansMono-61" transform="translate(1505.126953 0)"/>
     <use xlink:href="#DejaVuSansMono-74" transform="translate(1565.332031 0)"/>
     <use xlink:href="#DejaVuSansMono-65" transform="translate(1625.537109 0)"/>
     <use xlink:href="#DejaVuSansMono-67" transform="translate(1685.742188 0)"/>
     <use xlink:href="#DejaVuSansMono-79" transform="translate(1745.947266 0)"/>
     <use xlink:href="#DejaVuSansMono-20" transform="translate(1806.152344 0)"/>
     <use xlink:href="#DejaVuSansMono-20" transform="translate(1866.357422 0)"/>
     <use xlink:href="#DejaVuSansMono-25c6" transform="translate(1926.5625 0)"/>
     <use xlink:href="#DejaVuSansMono-20" transform="translate(1986.767578 0)"/>
     <use xlink:href="#DejaVuSansMono-65" transform="translate(2046.972656 0)"/>
     <use xlink:href="#DejaVuSansMono-76" transform="translate(2107.177734 0)"/>
     <use xlink:href="#DejaVuSansMono-61" transform="translate(2167.382812 0)"/>
     <use xlink:href="#DejaVuSansMono-6c" transform="translate(2227.587891 0)"/>
     <use xlink:href="#DejaVuSansMono-75" transform="translate(2287.792969 0)"/>
     <use xlink:href="#DejaVuSansMono-61" transform="translate(2347.998047 0)"/>
     <use xlink:href="#DejaVuSansMono-74" transform="translate(2408.203125 0)"/>
     <use xlink:href="#DejaVuSansMono-69" transform="translate(2468.408203 0)"/>
     <use xlink:href="#DejaVuSansMono-6f" transform="translate(2528.613281 0)"/>
     <use xlink:href="#DejaVuSansMono-6e" transform="translate(2588.818359 0)"/>
    </g>
   </g>
   <g id="legend_1">
    <g id="patch_7">
     <path d="M 12.1 83.825 
L 74.366094 83.825 
Q 75.766094 83.825 75.766094 82.425 
L 75.766094 31.751563 
Q 75.766094 30.351562 74.366094 30.351562 
L 12.1 30.351562 
Q 10.7 30.351562 10.7 31.751563 
L 10.7 82.425 
Q 10.7 83.825 12.1 83.825 
z
" style="fill: #1a1a1d; opacity: 0.8; stroke: #2a2a2e; stroke-linejoin: miter"/>
    </g>
    <g id="patch_8">
     <path d="M 13.5 38.470469 
L 27.5 38.470469 
L 27.5 33.570469 
L 13.5 33.570469 
z
" style="fill: #00aeef; stroke: #00aeef; stroke-linejoin: miter"/>
    </g>
    <g id="text_12">
     <!-- UNICEF -->
     <g style="fill: #e8e4dc" transform="translate(33.1 38.470469) scale(0.07 -0.07)">
      <defs>
       <path id="DejaVuSans-55" d="M 556 4666 
L 1191 4666 
L 1191 1831 
Q 1191 1081 1462 751 
Q 1734 422 2344 422 
Q 2950 422 3222 751 
Q 3494 1081 3494 1831 
L 3494 4666 
L 4128 4666 
L 4128 1753 
Q 4128 841 3676 375 
Q 3225 -91 2344 -91 
Q 1459 -91 1007 375 
Q 556 841 556 1753 
L 556 4666 
z
" transform="scale(0.015625)"/>
       <path id="DejaVuSans-4e" d="M 628 4666 
L 1478 4666 
L 3547 763 
L 3547 4666 
L 4159 4666 
L 4159 0 
L 3309 0 
L 1241 3903 
L 1241 0 
L 628 0 
L 628 4666 
z
" transform="scale(0.015625)"/>
       <path id="DejaVuSans-49" d="M 628 4666 
L 1259 4666 
L 1259 0 
L 628 0 
L 628 4666 
z
" transform="scale(0.015625)"/>
       <path id="DejaVuSans-43" d="M 4122 4306 
L 4122 3641 
Q 3803 3938 3442 4084 
Q 3081 4231 2675 4231 
Q 1875 4231 1450 3742 
Q 1025 3253 1025 2328 
Q 1025 1406 1450 917 
Q 1875 428 2675 428 
Q 3081 428 3442 575 
Q 3803 722 4122 1019 
L 4122 359 
Q 3791 134 3420 21 
Q 3050 -91 2638 -91 
Q 1578 -91 968 557 
Q 359 1206 359 2328 
Q 359 3453 968 4101 
Q 1578 4750 2638 4750 
Q 3056 4750 3426 4639 
Q 3797 4528 4122 4306 
z
" transform="scale(0.015625)"/>
       <path id="DejaVuSans-45" d="M 628 4666 
L 3578 4666 
L 3578 4134 
L 1259 4134 
L 1259 2753 
L 3481 2753 
L 3481 2222 
L 1259 2222 
L 1259 531 
L 3634 531 
L 3634 0 
L 628 0 
L 628 4666 
z
" transform="scale(0.015625)"/>
       <path id="DejaVuSans-46" d="M 628 4666 
L 3309 4666 
L 3309 4134 
L 1259 4134 
L 1259 2759 
L 3109 2759 
L 3109 2228 
L 1259 2228 
L 1259 0 
L 628 0 
L 628 4666 
z
" transform="scale(0.015625)"/>
      </defs>
      <use xlink:href="#DejaVuSans-55"/>
      <use xlink:href="#DejaVuSans-4e" transform="translate(73.193359 0)"/>
      <use xlink:href="#DejaVuSans-49" transform="translate(147.998047 0)"/>
      <use xlink:href="#DejaVuSans-43" transform="translate(177.490234 0)"/>
      <use xlink:href="#DejaVuSans-45" transform="translate(247.314453 0)"/>
      <use xlink:href="#DejaVuSans-46" transform="translate(310.498047 0)"/>
     </g>
    </g>
    <g id="patch_9">
     <path d="M 13.5 48.745156 
L 27.5 48.745156 
L 27.5 43.845156 
L 13.5 43.845156 
z
" style="fill: #008dc9; stroke: #008dc9; stroke-linejoin: miter"/>
    </g>
    <g id="text_13">
     <!-- WHO -->
     <g style="fill: #e8e4dc" transform="translate(33.1 48.745156) scale(0.07 -0.07)">
      <defs>
       <path id="DejaVuSans-57" d="M 213 4666 
L 850 4666 
L 1831 722 
L 2809 4666 
L 3519 4666 
L 4500 722 
L 5478 4666 
L 6119 4666 
L 4947 0 
L 4153 0 
L 3169 4050 
L 2175 0 
L 1381 0 
L 213 4666 
z
" transform="scale(0.015625)"/>
       <path id="DejaVuSans-48" d="M 628 4666 
L 1259 4666 
L 1259 2753 
L 3553 2753 
L 3553 4666 
L 4184 4666 
L 4184 0 
L 3553 0 
L 3553 2222 
L 1259 2222 
L 1259 0 
L 628 0 
L 628 4666 
z
" transform="scale(0.015625)"/>
       <path id="DejaVuSans-4f" d="M 2522 4238 
Q 1834 4238 1429 3725 
Q 1025 3213 1025 2328 
Q 1025 1447 1429 934 
Q 1834 422 2522 422 
Q 3209 422 3611 934 
Q 4013 1447 4013 2328 
Q 4013 3213 3611 3725 
Q 3209 4238 2522 4238 
z
M 2522 4750 
Q 3503 4750 4090 4092 
Q 4678 3434 4678 2328 
Q 4678 1225 4090 567 
Q 3503 -91 2522 -91 
Q 1538 -91 948 565 
Q 359 1222 359 2328 
Q 359 3434 948 4092 
Q 1538 4750 2522 4750 
z
" transform="scale(0.015625)"/>
      </defs>
      <use xlink:href="#DejaVuSans-57"/>
      <use xlink:href="#DejaVuSans-48" transform="translate(98.876953 0)"/>
      <use xlink:href="#DejaVuSans-4f" transform="translate(174.072266 0)"/>
     </g>
    </g>
    <g id="patch_10">
     <path d="M 13.5 59.019844 
L 27.5 59.019844 
L 27.5 54.119844 
L 13.5 54.119844 
z
" style="fill: #4a72b0; stroke: #4a72b0; stroke-linejoin: miter"/>
    </g>
    <g id="text_14">
     <!-- USAID -->
     <g style="fill: #e8e4dc" transform="translate(33.1 59.019844) scale(0.07 -0.07)">
      <defs>
       <path id="DejaVuSans-53" d="M 3425 4513 
L 3425 3897 
Q 3066 4069 2747 4153 
Q 2428 4238 2131 4238 
Q 1616 4238 1336 4038 
Q 1056 3838 1056 3469 
Q 1056 3159 1242 3001 
Q 1428 2844 1947 2747 
L 2328 2669 
Q 3034 2534 3370 2195 
Q 3706 1856 3706 1288 
Q 3706 609 3251 259 
Q 2797 -91 1919 -91 
Q 1588 -91 1214 -16 
Q 841 59 441 206 
L 441 856 
Q 825 641 1194 531 
Q 1563 422 1919 422 
Q 2459 422 2753 634 
Q 3047 847 3047 1241 
Q 3047 1584 2836 1778 
Q 2625 1972 2144 2069 
L 1759 2144 
Q 1053 2284 737 2584 
Q 422 2884 422 3419 
Q 422 4038 858 4394 
Q 1294 4750 2059 4750 
Q 2388 4750 2728 4690 
Q 3069 4631 3425 4513 
z
" transform="scale(0.015625)"/>
       <path id="DejaVuSans-41" d="M 2188 4044 
L 1331 1722 
L 3047 1722 
L 2188 4044 
z
M 1831 4666 
L 2547 4666 
L 4325 0 
L 3669 0 
L 3244 1197 
L 1141 1197 
L 716 0 
L 50 0 
L 1831 4666 
z
" transform="scale(0.015625)"/>
       <path id="DejaVuSans-44" d="M 1259 4147 
L 1259 519 
L 2022 519 
Q 2988 519 3436 956 
Q 3884 1394 3884 2338 
Q 3884 3275 3436 3711 
Q 2988 4147 2022 4147 
L 1259 4147 
z
M 628 4666 
L 1925 4666 
Q 3281 4666 3915 4102 
Q 4550 3538 4550 2338 
Q 4550 1131 3912 565 
Q 3275 0 1925 0 
L 628 0 
L 628 4666 
z
" transform="scale(0.015625)"/>
      </defs>
      <use xlink:href="#DejaVuSans-55"/>
      <use xlink:href="#DejaVuSans-53" transform="translate(73.193359 0)"/>
      <use xlink:href="#DejaVuSans-41" transform="translate(138.544922 0)"/>
      <use xlink:href="#DejaVuSans-49" transform="translate(206.953125 0)"/>
      <use xlink:href="#DejaVuSans-44" transform="translate(236.445312 0)"/>
     </g>
    </g>
    <g id="patch_11">
     <path d="M 13.5 69.294531 
L 27.5 69.294531 
L 27.5 64.394531 
L 13.5 64.394531 
z
" style="fill: #8b1a4a; stroke: #8b1a4a; stroke-linejoin: miter"/>
    </g>
    <g id="text_15">
     <!-- GAVI -->
     <g style="fill: #e8e4dc" transform="translate(33.1 69.294531) scale(0.07 -0.07)">
      <defs>
       <path id="DejaVuSans-47" d="M 3809 666 
L 3809 1919 
L 2778 1919 
L 2778 2438 
L 4434 2438 
L 4434 434 
Q 4069 175 3628 42 
Q 3188 -91 2688 -91 
Q 1594 -91 976 548 
Q 359 1188 359 2328 
Q 359 3472 976 4111 
Q 1594 4750 2688 4750 
Q 3144 4750 3555 4637 
Q 3966 4525 4313 4306 
L 4313 3634 
Q 3963 3931 3569 4081 
Q 3175 4231 2741 4231 
Q 1884 4231 1454 3753 
Q 1025 3275 1025 2328 
Q 1025 1384 1454 906 
Q 1884 428 2741 428 
Q 3075 428 3337 486 
Q 3600 544 3809 666 
z
" transform="scale(0.015625)"/>
       <path id="DejaVuSans-56" d="M 1831 0 
L 50 4666 
L 709 4666 
L 2188 738 
L 3669 4666 
L 4325 4666 
L 2547 0 
L 1831 0 
z
" transform="scale(0.015625)"/>
      </defs>
      <use xlink:href="#DejaVuSans-47"/>
      <use xlink:href="#DejaVuSans-41" transform="translate(77.490234 0)"/>
      <use xlink:href="#DejaVuSans-56" transform="translate(139.523438 0)"/>
      <use xlink:href="#DejaVuSans-49" transform="translate(207.931641 0)"/>
     </g>
    </g>
    <g id="patch_12">
     <path d="M 13.5 79.569219 
L 27.5 79.569219 
L 27.5 74.669219 
L 13.5 74.669219 
z
" style="fill: #009fda; stroke: #009fda; stroke-linejoin: miter"/>
    </g>
    <g id="text_16">
     <!-- World Bank -->
     <g style="fill: #e8e4dc" transform="translate(33.1 79.569219) scale(0.07 -0.07)">
      <defs>
       <path id="DejaVuSans-6f" d="M 1959 3097 
Q 1497 3097 1228 2736 
Q 959 2375 959 1747 
Q 959 1119 1226 758 
Q 1494 397 1959 397 
Q 2419 397 2687 759 
Q 2956 1122 2956 1747 
Q 2956 2369 2687 2733 
Q 2419 3097 1959 3097 
z
M 1959 3584 
Q 2709 3584 3137 3096 
Q 3566 2609 3566 1747 
Q 3566 888 3137 398 
Q 2709 -91 1959 -91 
Q 1206 -91 779 398 
Q 353 888 353 1747 
Q 353 2609 779 3096 
Q 1206 3584 1959 3584 
z
" transform="scale(0.015625)"/>
       <path id="DejaVuSans-72" d="M 2631 2963 
Q 2534 3019 2420 3045 
Q 2306 3072 2169 3072 
Q 1681 3072 1420 2755 
Q 1159 2438 1159 1844 
L 1159 0 
L 581 0 
L 581 3500 
L 1159 3500 
L 1159 2956 
Q 1341 3275 1631 3429 
Q 1922 3584 2338 3584 
Q 2397 3584 2469 3576 
Q 2541 3569 2628 3553 
L 2631 2963 
z
" transform="scale(0.015625)"/>
       <path id="DejaVuSans-6c" d="M 603 4863 
L 1178 4863 
L 1178 0 
L 603 0 
L 603 4863 
z
" transform="scale(0.015625)"/>
       <path id="DejaVuSans-64" d="M 2906 2969 
L 2906 4863 
L 3481 4863 
L 3481 0 
L 2906 0 
L 2906 525 
Q 2725 213 2448 61 
Q 2172 -91 1784 -91 
Q 1150 -91 751 415 
Q 353 922 353 1747 
Q 353 2572 751 3078 
Q 1150 3584 1784 3584 
Q 2172 3584 2448 3432 
Q 2725 3281 2906 2969 
z
M 947 1747 
Q 947 1113 1208 752 
Q 1469 391 1925 391 
Q 2381 391 2643 752 
Q 2906 1113 2906 1747 
Q 2906 2381 2643 2742 
Q 2381 3103 1925 3103 
Q 1469 3103 1208 2742 
Q 947 2381 947 1747 
z
" transform="scale(0.015625)"/>
       <path id="DejaVuSans-20" transform="scale(0.015625)"/>
       <path id="DejaVuSans-42" d="M 1259 2228 
L 1259 519 
L 2272 519 
Q 2781 519 3026 730 
Q 3272 941 3272 1375 
Q 3272 1813 3026 2020 
Q 2781 2228 2272 2228 
L 1259 2228 
z
M 1259 4147 
L 1259 2741 
L 2194 2741 
Q 2656 2741 2882 2914 
Q 3109 3088 3109 3444 
Q 3109 3797 2882 3972 
Q 2656 4147 2194 4147 
L 1259 4147 
z
M 628 4666 
L 2241 4666 
Q 2963 4666 3353 4366 
Q 3744 4066 3744 3513 
Q 3744 3084 3544 2831 
Q 3344 2578 2956 2516 
Q 3422 2416 3680 2098 
Q 3938 1781 3938 1306 
Q 3938 681 3513 340 
Q 3088 0 2303 0 
L 628 0 
L 628 4666 
z
" transform="scale(0.015625)"/>
       <path id="DejaVuSans-61" d="M 2194 1759 
Q 1497 1759 1228 1600 
Q 959 1441 959 1056 
Q 959 750 1161 570 
Q 1363 391 1709 391 
Q 2188 391 2477 730 
Q 2766 1069 2766 1631 
L 2766 1759 
L 2194 1759 
z
M 3341 1997 
L 3341 0 
L 2766 0 
L 2766 531 
Q 2569 213 2275 61 
Q 1981 -91 1556 -91 
Q 1019 -91 701 211 
Q 384 513 384 1019 
Q 384 1609 779 1909 
Q 1175 2209 1959 2209 
L 2766 2209 
L 2766 2266 
Q 2766 2663 2505 2880 
Q 2244 3097 1772 3097 
Q 1472 3097 1187 3025 
Q 903 2953 641 2809 
L 641 3341 
Q 956 3463 1253 3523 
Q 1550 3584 1831 3584 
Q 2591 3584 2966 3190 
Q 3341 2797 3341 1997 
z
" transform="scale(0.015625)"/>
       <path id="DejaVuSans-6e" d="M 3513 2113 
L 3513 0 
L 2938 0 
L 2938 2094 
Q 2938 2591 2744 2837 
Q 2550 3084 2163 3084 
Q 1697 3084 1428 2787 
Q 1159 2491 1159 1978 
L 1159 0 
L 581 0 
L 581 3500 
L 1159 3500 
L 1159 2956 
Q 1366 3272 1645 3428 
Q 1925 3584 2291 3584 
Q 2894 3584 3203 3211 
Q 3513 2838 3513 2113 
z
" transform="scale(0.015625)"/>
       <path id="DejaVuSans-6b" d="M 581 4863 
L 1159 4863 
L 1159 1991 
L 2875 3500 
L 3609 3500 
L 1753 1863 
L 3688 0 
L 2938 0 
L 1159 1709 
L 1159 0 
L 581 0 
L 581 4863 
z
" transform="scale(0.015625)"/>
      </defs>
      <use xlink:href="#DejaVuSans-57"/>
      <use xlink:href="#DejaVuSans-6f" transform="translate(93.001953 0)"/>
      <use xlink:href="#DejaVuSans-72" transform="translate(154.183594 0)"/>
      <use xlink:href="#DejaVuSans-6c" transform="translate(195.296875 0)"/>
      <use xlink:href="#DejaVuSans-64" transform="translate(223.080078 0)"/>
      <use xlink:href="#DejaVuSans-20" transform="translate(286.556641 0)"/>
      <use xlink:href="#DejaVuSans-42" transform="translate(318.34375 0)"/>
      <use xlink:href="#DejaVuSans-61" transform="translate(386.947266 0)"/>
      <use xlink:href="#DejaVuSans-6e" transform="translate(448.226562 0)"/>
      <use xlink:href="#DejaVuSans-6b" transform="translate(511.605469 0)"/>
     </g>
    </g>
   </g>
  </g>
 </g>
 <defs>
  <clipPath id="p6e3aeb6996">
   <rect x="7.2" y="26.851563" width="690" height="212.68"/>
  </clipPath>
 </defs>
</svg>
