<?xml version="1.0" encoding="utf-8" standalone="no"?>
<!DOCTYPE svg PUBLIC "-//W3C//DTD SVG 1.1//EN"
  "http://www.w3.org/Graphics/SVG/1.1/DTD/svg11.dtd">
<svg xmlns:xlink="http://www.w3.org/1999/xlink" width="558.4075pt" height="271.730313pt" viewBox="0 0 558.4075 271.730313" xmlns="http://www.w3.org/2000/svg" version="1.1">
 <metadata>
  <rdf:RDF xmlns:dc="http://purl.org/dc/elements/1.1/" xmlns:cc="http://creativecommons.org/ns#" xmlns:rdf="http://www.w3.org/1999/02/22-rdf-syntax-ns#">
   <cc:Work>
    <dc:type rdf:resource="http://purl.org/dc/dcmitype/StillImage"/>
    <dc:date>2026-06-19T08:54:05.568143</dc:date>
    <dc:format>image/svg+xml</dc:format>
    <dc:creator>
     <cc:Agent>
      <dc:title>Matplotlib v3.11.0, https://matplotlib.org/</dc:title>
     </cc:Agent>
    </dc:creator>
   </cc:Work>
  </rdf:RDF>
 </metadata>
 <defs>
  <style type="text/css">*{stroke-linejoin: round; stroke-linecap: butt}</style>
 </defs>
 <g id="figure_1">
  <g id="patch_1">
   <path d="M 0 271.730313 
L 558.4075 271.730313 
L 558.4075 0 
L 0 0 
z
" style="fill: #0d0d0f"/>
  </g>
  <g id="axes_1">
   <g id="patch_2">
    <path d="M 134.2475 237.529688 
L 551.2075 237.529688 
L 551.2075 26.851563 
L 134.2475 26.851563 
z
" style="fill: #0d0d0f"/>
   </g>
   <g id="patch_3">
    <path d="M 134.2475 227.953409 
L 323.416498 227.953409 
L 323.416498 202.971813 
L 134.2475 202.971813 
z
" clip-path="url(#p35e8845992)" style="fill: #c9a96e; stroke: #0d0d0f; stroke-linejoin: miter"/>
   </g>
   <g id="patch_4">
    <path d="M 134.2475 186.317416 
L 496.821413 186.317416 
L 496.821413 161.33582 
L 134.2475 161.33582 
z
" clip-path="url(#p35e8845992)" style="fill: #c9a96e; stroke: #0d0d0f; stroke-linejoin: miter"/>
   </g>
   <g id="patch_5">
    <path d="M 134.2475 144.681423 
L 433.76508 144.681423 
L 433.76508 119.699827 
L 134.2475 119.699827 
z
" clip-path="url(#p35e8845992)" style="fill: #c9a96e; stroke: #0d0d0f; stroke-linejoin: miter"/>
   </g>
   <g id="patch_6">
    <path d="M 134.2475 103.04543 
L 291.888332 103.04543 
L 291.888332 78.063834 
L 134.2475 78.063834 
z
" clip-path="url(#p35e8845992)" style="fill: #c9a96e; stroke: #0d0d0f; stroke-linejoin: miter"/>
   </g>
   <g id="patch_7">
    <path d="M 134.2475 61.409437 
L 370.708748 61.409437 
L 370.708748 36.427841 
L 134.2475 36.427841 
z
" clip-path="url(#p35e8845992)" style="fill: #c9a96e; stroke: #0d0d0f; stroke-linejoin: miter"/>
   </g>
   <g id="matplotlib.axis_1">
    <g id="xtick_1">
     <g id="line2d_1">
      <defs>
       <path id="m92dbb6d56c" d="M 0 0 
L 0 3.5 
" style="stroke: #e8e4dc; stroke-width: 0.8"/>
      </defs>
      <g>
       <use xlink:href="#m92dbb6d56c" x="134.2475" y="237.529688" style="fill: #e8e4dc; stroke: #e8e4dc; stroke-width: 0.8"/>
      </g>
     </g>
     <g id="text_1">
      <!-- 0 -->
      <g style="fill: #e8e4dc" transform="translate(131.7025 250.607813) scale(0.08 -0.08)">
       <defs>
        <path id="DejaVuSans-13" d="M 2034 4250 
Q 1547 4250 1301 3770 
Q 1056 3291 1056 2328 
Q 1056 1369 1301 889 
Q 1547 409 2034 409 
Q 2525 409 2770 889 
Q 3016 1369 3016 2328 
Q 3016 3291 2770 3770 
Q 2525 4250 2034 4250 
z
M 2034 4750 
Q 2819 4750 3233 4129 
Q 3647 3509 3647 2328 
Q 3647 1150 3233 529 
Q 2819 -91 2034 -91 
Q 1250 -91 836 529 
Q 422 1150 422 2328 
Q 422 3509 836 4129 
Q 1250 4750 2034 4750 
z
" transform="scale(0.015625)"/>
       </defs>
       <use xlink:href="#DejaVuSans-13"/>
      </g>
     </g>
    </g>
    <g id="xtick_2">
     <g id="line2d_2">
      <g>
       <use xlink:href="#m92dbb6d56c" x="213.067916" y="237.529688" style="fill: #e8e4dc; stroke: #e8e4dc; stroke-width: 0.8"/>
      </g>
     </g>
     <g id="text_2">
      <!-- 5 -->
      <g style="fill: #e8e4dc" transform="translate(210.522916 250.607813) scale(0.08 -0.08)">
       <defs>
        <path id="DejaVuSans-18" d="M 691 4666 
L 3169 4666 
L 3169 4134 
L 1269 4134 
L 1269 2991 
Q 1406 3038 1543 3061 
Q 1681 3084 1819 3084 
Q 2600 3084 3056 2656 
Q 3513 2228 3513 1497 
Q 3513 744 3044 326 
Q 2575 -91 1722 -91 
Q 1428 -91 1123 -41 
Q 819 9 494 109 
L 494 744 
Q 775 591 1075 516 
Q 1375 441 1709 441 
Q 2250 441 2565 725 
Q 2881 1009 2881 1497 
Q 2881 1984 2565 2268 
Q 2250 2553 1709 2553 
Q 1456 2553 1204 2497 
Q 953 2441 691 2322 
L 691 4666 
z
" transform="scale(0.015625)"/>
       </defs>
       <use xlink:href="#DejaVuSans-18"/>
      </g>
     </g>
    </g>
    <g id="xtick_3">
     <g id="line2d_3">
      <g>
       <use xlink:href="#m92dbb6d56c" x="291.888332" y="237.529688" style="fill: #e8e4dc; stroke: #e8e4dc; stroke-width: 0.8"/>
      </g>
     </g>
     <g id="text_3">
      <!-- 10 -->
      <g style="fill: #e8e4dc" transform="translate(286.798332 250.607813) scale(0.08 -0.08)">
       <defs>
        <path id="DejaVuSans-14" d="M 794 531 
L 1825 531 
L 1825 4091 
L 703 3866 
L 703 4441 
L 1819 4666 
L 2450 4666 
L 2450 531 
L 3481 531 
L 3481 0 
L 794 0 
L 794 531 
z
" transform="scale(0.015625)"/>
       </defs>
       <use xlink:href="#DejaVuSans-14"/>
       <use xlink:href="#DejaVuSans-13" transform="translate(63.625 0)"/>
      </g>
     </g>
    </g>
    <g id="xtick_4">
     <g id="line2d_4">
      <g>
       <use xlink:href="#m92dbb6d56c" x="370.708748" y="237.529688" style="fill: #e8e4dc; stroke: #e8e4dc; stroke-width: 0.8"/>
      </g>
     </g>
     <g id="text_4">
      <!-- 15 -->
      <g style="fill: #e8e4dc" transform="translate(365.618748 250.607813) scale(0.08 -0.08)">
       <use xlink:href="#DejaVuSans-14"/>
       <use xlink:href="#DejaVuSans-18" transform="translate(63.625 0)"/>
      </g>
     </g>
    </g>
    <g id="xtick_5">
     <g id="line2d_5">
      <g>
       <use xlink:href="#m92dbb6d56c" x="449.529164" y="237.529688" style="fill: #e8e4dc; stroke: #e8e4dc; stroke-width: 0.8"/>
      </g>
     </g>
     <g id="text_5">
      <!-- 20 -->
      <g style="fill: #e8e4dc" transform="translate(444.439164 250.607813) scale(0.08 -0.08)">
       <defs>
        <path id="DejaVuSans-15" d="M 1228 531 
L 3431 531 
L 3431 0 
L 469 0 
L 469 531 
Q 828 903 1448 1529 
Q 2069 2156 2228 2338 
Q 2531 2678 2651 2914 
Q 2772 3150 2772 3378 
Q 2772 3750 2511 3984 
Q 2250 4219 1831 4219 
Q 1534 4219 1204 4116 
Q 875 4013 500 3803 
L 500 4441 
Q 881 4594 1212 4672 
Q 1544 4750 1819 4750 
Q 2544 4750 2975 4387 
Q 3406 4025 3406 3419 
Q 3406 3131 3298 2873 
Q 3191 2616 2906 2266 
Q 2828 2175 2409 1742 
Q 1991 1309 1228 531 
z
" transform="scale(0.015625)"/>
       </defs>
       <use xlink:href="#DejaVuSans-15"/>
       <use xlink:href="#DejaVuSans-13" transform="translate(63.625 0)"/>
      </g>
     </g>
    </g>
    <g id="xtick_6">
     <g id="line2d_6">
      <g>
       <use xlink:href="#m92dbb6d56c" x="528.349579" y="237.529688" style="fill: #e8e4dc; stroke: #e8e4dc; stroke-width: 0.8"/>
      </g>
     </g>
     <g id="text_6">
      <!-- 25 -->
      <g style="fill: #e8e4dc" transform="translate(523.259579 250.607813) scale(0.08 -0.08)">
       <use xlink:href="#DejaVuSans-15"/>
       <use xlink:href="#DejaVuSans-18" transform="translate(63.625 0)"/>
      </g>
     </g>
    </g>
    <g id="text_7">
     <!-- Number of instances -->
     <g style="fill: #e8e4dc" transform="translate(296.973125 262.608438) scale(0.08 -0.08)">
      <defs>
       <path id="DejaVuSansMono-31" d="M 434 4666 
L 1234 4666 
L 2809 825 
L 2809 4666 
L 3419 4666 
L 3419 0 
L 2619 0 
L 1044 3841 
L 1044 0 
L 434 0 
L 434 4666 
z
" transform="scale(0.015625)"/>
       <path id="DejaVuSansMono-58" d="M 609 1325 
L 609 3494 
L 1184 3494 
L 1184 1325 
Q 1184 853 1351 631 
Q 1519 409 1869 409 
Q 2275 409 2490 695 
Q 2706 981 2706 1516 
L 2706 3494 
L 3284 3494 
L 3284 0 
L 2706 0 
L 2706 525 
Q 2553 222 2289 65 
Q 2025 -91 1672 -91 
Q 1134 -91 871 261 
Q 609 613 609 1325 
z
" transform="scale(0.015625)"/>
       <path id="DejaVuSansMono-50" d="M 2113 3144 
Q 2219 3369 2383 3476 
Q 2547 3584 2778 3584 
Q 3200 3584 3373 3257 
Q 3547 2931 3547 2028 
L 3547 0 
L 3022 0 
L 3022 2003 
Q 3022 2744 2939 2923 
Q 2856 3103 2638 3103 
Q 2388 3103 2295 2911 
Q 2203 2719 2203 2003 
L 2203 0 
L 1678 0 
L 1678 2003 
Q 1678 2753 1589 2928 
Q 1500 3103 1269 3103 
Q 1041 3103 952 2911 
Q 863 2719 863 2003 
L 863 0 
L 341 0 
L 341 3500 
L 863 3500 
L 863 3200 
Q 966 3388 1120 3486 
Q 1275 3584 1472 3584 
Q 1709 3584 1867 3475 
Q 2025 3366 2113 3144 
z
" transform="scale(0.015625)"/>
       <path id="DejaVuSansMono-45" d="M 2869 1747 
Q 2869 2416 2656 2756 
Q 2444 3097 2028 3097 
Q 1609 3097 1393 2755 
Q 1178 2413 1178 1747 
Q 1178 1084 1393 740 
Q 1609 397 2028 397 
Q 2444 397 2656 737 
Q 2869 1078 2869 1747 
z
M 1178 3053 
Q 1316 3309 1558 3446 
Q 1800 3584 2119 3584 
Q 2750 3584 3112 3098 
Q 3475 2613 3475 1759 
Q 3475 894 3111 401 
Q 2747 -91 2113 -91 
Q 1800 -91 1561 45 
Q 1322 181 1178 441 
L 1178 0 
L 603 0 
L 603 4863 
L 1178 4863 
L 1178 3053 
z
" transform="scale(0.015625)"/>
       <path id="DejaVuSansMono-48" d="M 3475 1894 
L 3475 1613 
L 984 1613 
L 984 1594 
Q 984 1022 1282 709 
Q 1581 397 2125 397 
Q 2400 397 2700 484 
Q 3000 572 3341 750 
L 3341 178 
Q 3013 44 2708 -23 
Q 2403 -91 2119 -91 
Q 1303 -91 843 398 
Q 384 888 384 1747 
Q 384 2584 834 3084 
Q 1284 3584 2034 3584 
Q 2703 3584 3089 3131 
Q 3475 2678 3475 1894 
z
M 2900 2063 
Q 2888 2569 2661 2833 
Q 2434 3097 2009 3097 
Q 1594 3097 1325 2822 
Q 1056 2547 1006 2059 
L 2900 2063 
z
" transform="scale(0.015625)"/>
       <path id="DejaVuSansMono-55" d="M 3609 2778 
Q 3425 2922 3234 2987 
Q 3044 3053 2816 3053 
Q 2278 3053 1993 2715 
Q 1709 2378 1709 1741 
L 1709 0 
L 1131 0 
L 1131 3500 
L 1709 3500 
L 1709 2816 
Q 1853 3188 2151 3386 
Q 2450 3584 2859 3584 
Q 3072 3584 3256 3531 
Q 3441 3478 3609 3366 
L 3609 2778 
z
" transform="scale(0.015625)"/>
       <path id="DejaVuSansMono-3" transform="scale(0.015625)"/>
       <path id="DejaVuSansMono-52" d="M 1925 3097 
Q 1488 3097 1263 2756 
Q 1038 2416 1038 1747 
Q 1038 1081 1263 739 
Q 1488 397 1925 397 
Q 2366 397 2591 739 
Q 2816 1081 2816 1747 
Q 2816 2416 2591 2756 
Q 2366 3097 1925 3097 
z
M 1925 3584 
Q 2653 3584 3039 3112 
Q 3425 2641 3425 1747 
Q 3425 850 3040 379 
Q 2656 -91 1925 -91 
Q 1197 -91 812 379 
Q 428 850 428 1747 
Q 428 2641 812 3112 
Q 1197 3584 1925 3584 
z
" transform="scale(0.015625)"/>
       <path id="DejaVuSansMono-49" d="M 3322 4863 
L 3322 4384 
L 2669 4384 
Q 2359 4384 2239 4257 
Q 2119 4131 2119 3809 
L 2119 3500 
L 3322 3500 
L 3322 3053 
L 2119 3053 
L 2119 0 
L 1544 0 
L 1544 3053 
L 609 3053 
L 609 3500 
L 1544 3500 
L 1544 3744 
Q 1544 4319 1808 4591 
Q 2072 4863 2631 4863 
L 3322 4863 
z
" transform="scale(0.015625)"/>
       <path id="DejaVuSansMono-4c" d="M 800 3500 
L 2272 3500 
L 2272 447 
L 3413 447 
L 3413 0 
L 556 0 
L 556 447 
L 1697 447 
L 1697 3053 
L 800 3053 
L 800 3500 
z
M 1697 4863 
L 2272 4863 
L 2272 4134 
L 1697 4134 
L 1697 4863 
z
" transform="scale(0.015625)"/>
       <path id="DejaVuSansMono-51" d="M 3284 2169 
L 3284 0 
L 2706 0 
L 2706 2169 
Q 2706 2641 2540 2862 
Q 2375 3084 2022 3084 
Q 1619 3084 1401 2798 
Q 1184 2513 1184 1978 
L 1184 0 
L 609 0 
L 609 3500 
L 1184 3500 
L 1184 2975 
Q 1338 3275 1600 3429 
Q 1863 3584 2222 3584 
Q 2756 3584 3020 3232 
Q 3284 2881 3284 2169 
z
" transform="scale(0.015625)"/>
       <path id="DejaVuSansMono-56" d="M 3041 3378 
L 3041 2816 
Q 2794 2959 2544 3031 
Q 2294 3103 2034 3103 
Q 1644 3103 1451 2976 
Q 1259 2850 1259 2591 
Q 1259 2356 1403 2240 
Q 1547 2125 2119 2016 
L 2350 1972 
Q 2778 1891 2998 1647 
Q 3219 1403 3219 1013 
Q 3219 494 2850 201 
Q 2481 -91 1825 -91 
Q 1566 -91 1281 -36 
Q 997 19 666 128 
L 666 722 
Q 988 556 1281 473 
Q 1575 391 1838 391 
Q 2219 391 2428 545 
Q 2638 700 2638 978 
Q 2638 1378 1872 1531 
L 1847 1538 
L 1631 1581 
Q 1134 1678 906 1908 
Q 678 2138 678 2534 
Q 678 3038 1018 3311 
Q 1359 3584 1991 3584 
Q 2272 3584 2531 3532 
Q 2791 3481 3041 3378 
z
" transform="scale(0.015625)"/>
       <path id="DejaVuSansMono-57" d="M 1919 4494 
L 1919 3500 
L 3225 3500 
L 3225 3053 
L 1919 3053 
L 1919 1153 
Q 1919 766 2066 612 
Q 2213 459 2578 459 
L 3225 459 
L 3225 0 
L 2522 0 
Q 1875 0 1609 259 
Q 1344 519 1344 1153 
L 1344 3053 
L 409 3053 
L 409 3500 
L 1344 3500 
L 1344 4494 
L 1919 4494 
z
" transform="scale(0.015625)"/>
       <path id="DejaVuSansMono-44" d="M 2194 1759 
L 2003 1759 
Q 1500 1759 1245 1582 
Q 991 1406 991 1056 
Q 991 741 1181 566 
Q 1372 391 1709 391 
Q 2184 391 2456 720 
Q 2728 1050 2731 1631 
L 2731 1759 
L 2194 1759 
z
M 3309 1997 
L 3309 0 
L 2731 0 
L 2731 519 
Q 2547 206 2267 57 
Q 1988 -91 1588 -91 
Q 1053 -91 734 211 
Q 416 513 416 1019 
Q 416 1603 808 1906 
Q 1200 2209 1959 2209 
L 2731 2209 
L 2731 2300 
Q 2728 2719 2518 2908 
Q 2309 3097 1850 3097 
Q 1556 3097 1256 3012 
Q 956 2928 672 2766 
L 672 3341 
Q 991 3463 1283 3523 
Q 1575 3584 1850 3584 
Q 2284 3584 2592 3456 
Q 2900 3328 3091 3072 
Q 3209 2916 3259 2686 
Q 3309 2456 3309 1997 
z
" transform="scale(0.015625)"/>
       <path id="DejaVuSansMono-46" d="M 3316 178 
Q 3084 44 2839 -23 
Q 2594 -91 2338 -91 
Q 1525 -91 1067 396 
Q 609 884 609 1747 
Q 609 2609 1067 3096 
Q 1525 3584 2338 3584 
Q 2591 3584 2831 3518 
Q 3072 3453 3316 3316 
L 3316 2713 
Q 3088 2916 2858 3006 
Q 2628 3097 2338 3097 
Q 1797 3097 1506 2747 
Q 1216 2397 1216 1747 
Q 1216 1100 1508 748 
Q 1800 397 2338 397 
Q 2638 397 2875 489 
Q 3113 581 3316 775 
L 3316 178 
z
" transform="scale(0.015625)"/>
      </defs>
      <use xlink:href="#DejaVuSansMono-31"/>
      <use xlink:href="#DejaVuSansMono-58" transform="translate(60.203125 0)"/>
      <use xlink:href="#DejaVuSansMono-50" transform="translate(120.40625 0)"/>
      <use xlink:href="#DejaVuSansMono-45" transform="translate(180.609375 0)"/>
      <use xlink:href="#DejaVuSansMono-48" transform="translate(240.8125 0)"/>
      <use xlink:href="#DejaVuSansMono-55" transform="translate(301.015625 0)"/>
      <use xlink:href="#DejaVuSansMono-3" transform="translate(361.21875 0)"/>
      <use xlink:href="#DejaVuSansMono-52" transform="translate(421.421875 0)"/>
      <use xlink:href="#DejaVuSansMono-49" transform="translate(481.625 0)"/>
      <use xlink:href="#DejaVuSansMono-3" transform="translate(541.828125 0)"/>
      <use xlink:href="#DejaVuSansMono-4c" transform="translate(602.03125 0)"/>
      <use xlink:href="#DejaVuSansMono-51" transform="translate(662.234375 0)"/>
      <use xlink:href="#DejaVuSansMono-56" transform="translate(722.4375 0)"/>
      <use xlink:href="#DejaVuSansMono-57" transform="translate(782.640625 0)"/>
      <use xlink:href="#DejaVuSansMono-44" transform="translate(842.84375 0)"/>
      <use xlink:href="#DejaVuSansMono-51" transform="translate(903.046875 0)"/>
      <use xlink:href="#DejaVuSansMono-46" transform="translate(963.25 0)"/>
      <use xlink:href="#DejaVuSansMono-48" transform="translate(1023.453125 0)"/>
      <use xlink:href="#DejaVuSansMono-56" transform="translate(1083.65625 0)"/>
     </g>
    </g>
   </g>
   <g id="matplotlib.axis_2">
    <g id="ytick_1">
     <g id="line2d_7">
      <defs>
       <path id="mc2166aeea0" d="M 0 0 
L -3.5 0 
" style="stroke: #e8e4dc; stroke-width: 0.8"/>
      </defs>
      <g>
       <use xlink:href="#mc2166aeea0" x="134.2475" y="215.462611" style="fill: #e8e4dc; stroke: #e8e4dc; stroke-width: 0.8"/>
      </g>
     </g>
     <g id="text_8">
      <!-- Communities will lead -->
      <g style="fill: #e8e4dc" transform="translate(38.94875 218.501986) scale(0.08 -0.08)">
       <defs>
        <path id="DejaVuSans-26" d="M 4122 4306 
L 4122 3641 
Q 3803 3938 3442 4084 
Q 3081 4231 2675 4231 
Q 1875 4231 1450 3742 
Q 1025 3253 1025 2328 
Q 1025 1406 1450 917 
Q 1875 428 2675 428 
Q 3081 428 3442 575 
Q 3803 722 4122 1019 
L 4122 359 
Q 3791 134 3420 21 
Q 3050 -91 2638 -91 
Q 1578 -91 968 557 
Q 359 1206 359 2328 
Q 359 3453 968 4101 
Q 1578 4750 2638 4750 
Q 3056 4750 3426 4639 
Q 3797 4528 4122 4306 
z
" transform="scale(0.015625)"/>
        <path id="DejaVuSans-52" d="M 1959 3097 
Q 1497 3097 1228 2736 
Q 959 2375 959 1747 
Q 959 1119 1226 758 
Q 1494 397 1959 397 
Q 2419 397 2687 759 
Q 2956 1122 2956 1747 
Q 2956 2369 2687 2733 
Q 2419 3097 1959 3097 
z
M 1959 3584 
Q 2709 3584 3137 3096 
Q 3566 2609 3566 1747 
Q 3566 888 3137 398 
Q 2709 -91 1959 -91 
Q 1206 -91 779 398 
Q 353 888 353 1747 
Q 353 2609 779 3096 
Q 1206 3584 1959 3584 
z
" transform="scale(0.015625)"/>
        <path id="DejaVuSans-50" d="M 3328 2828 
Q 3544 3216 3844 3400 
Q 4144 3584 4550 3584 
Q 5097 3584 5394 3201 
Q 5691 2819 5691 2113 
L 5691 0 
L 5113 0 
L 5113 2094 
Q 5113 2597 4934 2840 
Q 4756 3084 4391 3084 
Q 3944 3084 3684 2787 
Q 3425 2491 3425 1978 
L 3425 0 
L 2847 0 
L 2847 2094 
Q 2847 2600 2669 2842 
Q 2491 3084 2119 3084 
Q 1678 3084 1418 2786 
Q 1159 2488 1159 1978 
L 1159 0 
L 581 0 
L 581 3500 
L 1159 3500 
L 1159 2956 
Q 1356 3278 1631 3431 
Q 1906 3584 2284 3584 
Q 2666 3584 2933 3390 
Q 3200 3197 3328 2828 
z
" transform="scale(0.015625)"/>
        <path id="DejaVuSans-58" d="M 544 1381 
L 544 3500 
L 1119 3500 
L 1119 1403 
Q 1119 906 1312 657 
Q 1506 409 1894 409 
Q 2359 409 2629 706 
Q 2900 1003 2900 1516 
L 2900 3500 
L 3475 3500 
L 3475 0 
L 2900 0 
L 2900 538 
Q 2691 219 2414 64 
Q 2138 -91 1772 -91 
Q 1169 -91 856 284 
Q 544 659 544 1381 
z
M 1991 3584 
L 1991 3584 
z
" transform="scale(0.015625)"/>
        <path id="DejaVuSans-51" d="M 3513 2113 
L 3513 0 
L 2938 0 
L 2938 2094 
Q 2938 2591 2744 2837 
Q 2550 3084 2163 3084 
Q 1697 3084 1428 2787 
Q 1159 2491 1159 1978 
L 1159 0 
L 581 0 
L 581 3500 
L 1159 3500 
L 1159 2956 
Q 1366 3272 1645 3428 
Q 1925 3584 2291 3584 
Q 2894 3584 3203 3211 
Q 3513 2838 3513 2113 
z
" transform="scale(0.015625)"/>
        <path id="DejaVuSans-4c" d="M 603 3500 
L 1178 3500 
L 1178 0 
L 603 0 
L 603 3500 
z
M 603 4863 
L 1178 4863 
L 1178 4134 
L 603 4134 
L 603 4863 
z
" transform="scale(0.015625)"/>
        <path id="DejaVuSans-57" d="M 1172 4494 
L 1172 3500 
L 2356 3500 
L 2356 3053 
L 1172 3053 
L 1172 1153 
Q 1172 725 1289 603 
Q 1406 481 1766 481 
L 2356 481 
L 2356 0 
L 1766 0 
Q 1100 0 847 248 
Q 594 497 594 1153 
L 594 3053 
L 172 3053 
L 172 3500 
L 594 3500 
L 594 4494 
L 1172 4494 
z
" transform="scale(0.015625)"/>
        <path id="DejaVuSans-48" d="M 3597 1894 
L 3597 1613 
L 953 1613 
Q 991 1019 1311 708 
Q 1631 397 2203 397 
Q 2534 397 2845 478 
Q 3156 559 3463 722 
L 3463 178 
Q 3153 47 2828 -22 
Q 2503 -91 2169 -91 
Q 1331 -91 842 396 
Q 353 884 353 1716 
Q 353 2575 817 3079 
Q 1281 3584 2069 3584 
Q 2775 3584 3186 3129 
Q 3597 2675 3597 1894 
z
M 3022 2063 
Q 3016 2534 2758 2815 
Q 2500 3097 2075 3097 
Q 1594 3097 1305 2825 
Q 1016 2553 972 2059 
L 3022 2063 
z
" transform="scale(0.015625)"/>
        <path id="DejaVuSans-56" d="M 2834 3397 
L 2834 2853 
Q 2591 2978 2328 3040 
Q 2066 3103 1784 3103 
Q 1356 3103 1142 2972 
Q 928 2841 928 2578 
Q 928 2378 1081 2264 
Q 1234 2150 1697 2047 
L 1894 2003 
Q 2506 1872 2764 1633 
Q 3022 1394 3022 966 
Q 3022 478 2636 193 
Q 2250 -91 1575 -91 
Q 1294 -91 989 -36 
Q 684 19 347 128 
L 347 722 
Q 666 556 975 473 
Q 1284 391 1588 391 
Q 1994 391 2212 530 
Q 2431 669 2431 922 
Q 2431 1156 2273 1281 
Q 2116 1406 1581 1522 
L 1381 1569 
Q 847 1681 609 1914 
Q 372 2147 372 2553 
Q 372 3047 722 3315 
Q 1072 3584 1716 3584 
Q 2034 3584 2315 3537 
Q 2597 3491 2834 3397 
z
" transform="scale(0.015625)"/>
        <path id="DejaVuSans-3" transform="scale(0.015625)"/>
        <path id="DejaVuSans-5a" d="M 269 3500 
L 844 3500 
L 1563 769 
L 2278 3500 
L 2956 3500 
L 3675 769 
L 4391 3500 
L 4966 3500 
L 4050 0 
L 3372 0 
L 2619 2869 
L 1863 0 
L 1184 0 
L 269 3500 
z
" transform="scale(0.015625)"/>
        <path id="DejaVuSans-4f" d="M 603 4863 
L 1178 4863 
L 1178 0 
L 603 0 
L 603 4863 
z
" transform="scale(0.015625)"/>
        <path id="DejaVuSans-44" d="M 2194 1759 
Q 1497 1759 1228 1600 
Q 959 1441 959 1056 
Q 959 750 1161 570 
Q 1363 391 1709 391 
Q 2188 391 2477 730 
Q 2766 1069 2766 1631 
L 2766 1759 
L 2194 1759 
z
M 3341 1997 
L 3341 0 
L 2766 0 
L 2766 531 
Q 2569 213 2275 61 
Q 1981 -91 1556 -91 
Q 1019 -91 701 211 
Q 384 513 384 1019 
Q 384 1609 779 1909 
Q 1175 2209 1959 2209 
L 2766 2209 
L 2766 2266 
Q 2766 2663 2505 2880 
Q 2244 3097 1772 3097 
Q 1472 3097 1187 3025 
Q 903 2953 641 2809 
L 641 3341 
Q 956 3463 1253 3523 
Q 1550 3584 1831 3584 
Q 2591 3584 2966 3190 
Q 3341 2797 3341 1997 
z
" transform="scale(0.015625)"/>
        <path id="DejaVuSans-47" d="M 2906 2969 
L 2906 4863 
L 3481 4863 
L 3481 0 
L 2906 0 
L 2906 525 
Q 2725 213 2448 61 
Q 2172 -91 1784 -91 
Q 1150 -91 751 415 
Q 353 922 353 1747 
Q 353 2572 751 3078 
Q 1150 3584 1784 3584 
Q 2172 3584 2448 3432 
Q 2725 3281 2906 2969 
z
M 947 1747 
Q 947 1113 1208 752 
Q 1469 391 1925 391 
Q 2381 391 2643 752 
Q 2906 1113 2906 1747 
Q 2906 2381 2643 2742 
Q 2381 3103 1925 3103 
Q 1469 3103 1208 2742 
Q 947 2381 947 1747 
z
" transform="scale(0.015625)"/>
       </defs>
       <use xlink:href="#DejaVuSans-26"/>
       <use xlink:href="#DejaVuSans-52" transform="translate(69.828125 0)"/>
       <use xlink:href="#DejaVuSans-50" transform="translate(131.015625 0)"/>
       <use xlink:href="#DejaVuSans-50" transform="translate(228.421875 0)"/>
       <use xlink:href="#DejaVuSans-58" transform="translate(325.828125 0)"/>
       <use xlink:href="#DejaVuSans-51" transform="translate(389.203125 0)"/>
       <use xlink:href="#DejaVuSans-4c" transform="translate(452.578125 0)"/>
       <use xlink:href="#DejaVuSans-57" transform="translate(480.359375 0)"/>
       <use xlink:href="#DejaVuSans-4c" transform="translate(519.5625 0)"/>
       <use xlink:href="#DejaVuSans-48" transform="translate(547.34375 0)"/>
       <use xlink:href="#DejaVuSans-56" transform="translate(608.875 0)"/>
       <use xlink:href="#DejaVuSans-3" transform="translate(660.96875 0)"/>
       <use xlink:href="#DejaVuSans-5a" transform="translate(692.75 0)"/>
       <use xlink:href="#DejaVuSans-4c" transform="translate(774.53125 0)"/>
       <use xlink:href="#DejaVuSans-4f" transform="translate(802.3125 0)"/>
       <use xlink:href="#DejaVuSans-4f" transform="translate(830.09375 0)"/>
       <use xlink:href="#DejaVuSans-3" transform="translate(857.875 0)"/>
       <use xlink:href="#DejaVuSans-4f" transform="translate(889.65625 0)"/>
       <use xlink:href="#DejaVuSans-48" transform="translate(917.4375 0)"/>
       <use xlink:href="#DejaVuSans-44" transform="translate(978.96875 0)"/>
       <use xlink:href="#DejaVuSans-47" transform="translate(1040.25 0)"/>
      </g>
     </g>
    </g>
    <g id="ytick_2">
     <g id="line2d_8">
      <g>
       <use xlink:href="#mc2166aeea0" x="134.2475" y="173.826618" style="fill: #e8e4dc; stroke: #e8e4dc; stroke-width: 0.8"/>
      </g>
     </g>
     <g id="text_9">
      <!-- Context-specific -->
      <g style="fill: #e8e4dc" transform="translate(62.7925 176.865993) scale(0.08 -0.08)">
       <defs>
        <path id="DejaVuSans-5b" d="M 3513 3500 
L 2247 1797 
L 3578 0 
L 2900 0 
L 1881 1375 
L 863 0 
L 184 0 
L 1544 1831 
L 300 3500 
L 978 3500 
L 1906 2253 
L 2834 3500 
L 3513 3500 
z
" transform="scale(0.015625)"/>
        <path id="DejaVuSans-10" d="M 313 2009 
L 1997 2009 
L 1997 1497 
L 313 1497 
L 313 2009 
z
" transform="scale(0.015625)"/>
        <path id="DejaVuSans-53" d="M 1159 525 
L 1159 -1331 
L 581 -1331 
L 581 3500 
L 1159 3500 
L 1159 2969 
Q 1341 3281 1617 3432 
Q 1894 3584 2278 3584 
Q 2916 3584 3314 3078 
Q 3713 2572 3713 1747 
Q 3713 922 3314 415 
Q 2916 -91 2278 -91 
Q 1894 -91 1617 61 
Q 1341 213 1159 525 
z
M 3116 1747 
Q 3116 2381 2855 2742 
Q 2594 3103 2138 3103 
Q 1681 3103 1420 2742 
Q 1159 2381 1159 1747 
Q 1159 1113 1420 752 
Q 1681 391 2138 391 
Q 2594 391 2855 752 
Q 3116 1113 3116 1747 
z
" transform="scale(0.015625)"/>
        <path id="DejaVuSans-46" d="M 3122 3366 
L 3122 2828 
Q 2878 2963 2633 3030 
Q 2388 3097 2138 3097 
Q 1578 3097 1268 2742 
Q 959 2388 959 1747 
Q 959 1106 1268 751 
Q 1578 397 2138 397 
Q 2388 397 2633 464 
Q 2878 531 3122 666 
L 3122 134 
Q 2881 22 2623 -34 
Q 2366 -91 2075 -91 
Q 1284 -91 818 406 
Q 353 903 353 1747 
Q 353 2603 823 3093 
Q 1294 3584 2113 3584 
Q 2378 3584 2631 3529 
Q 2884 3475 3122 3366 
z
" transform="scale(0.015625)"/>
        <path id="DejaVuSans-13af" d="M 3431 3500 
L 3431 0 
L 2853 0 
L 2853 3053 
L 1275 3053 
L 1275 0 
L 697 0 
L 697 3053 
L 147 3053 
L 147 3500 
L 697 3500 
L 697 3744 
Q 697 4316 967 4589 
Q 1238 4863 1797 4863 
L 2375 4863 
L 2375 4384 
L 1825 4384 
Q 1516 4384 1395 4259 
Q 1275 4134 1275 3809 
L 1275 3500 
L 3431 3500 
z
M 2853 4856 
L 3431 4856 
L 3431 4128 
L 2853 4128 
L 2853 4856 
z
" transform="scale(0.015625)"/>
       </defs>
       <use xlink:href="#DejaVuSans-26"/>
       <use xlink:href="#DejaVuSans-52" transform="translate(69.828125 0)"/>
       <use xlink:href="#DejaVuSans-51" transform="translate(131.015625 0)"/>
       <use xlink:href="#DejaVuSans-57" transform="translate(194.390625 0)"/>
       <use xlink:href="#DejaVuSans-48" transform="translate(233.59375 0)"/>
       <use xlink:href="#DejaVuSans-5b" transform="translate(293.375 0)"/>
       <use xlink:href="#DejaVuSans-57" transform="translate(352.5625 0)"/>
       <use xlink:href="#DejaVuSans-10" transform="translate(391.765625 0)"/>
       <use xlink:href="#DejaVuSans-56" transform="translate(427.84375 0)"/>
       <use xlink:href="#DejaVuSans-53" transform="translate(479.9375 0)"/>
       <use xlink:href="#DejaVuSans-48" transform="translate(543.421875 0)"/>
       <use xlink:href="#DejaVuSans-46" transform="translate(604.953125 0)"/>
       <use xlink:href="#DejaVuSans-4c" transform="translate(659.9375 0)"/>
       <use xlink:href="#DejaVuSans-13af" transform="translate(687.71875 0)"/>
       <use xlink:href="#DejaVuSans-46" transform="translate(750.703125 0)"/>
      </g>
     </g>
    </g>
    <g id="ytick_3">
     <g id="line2d_9">
      <g>
       <use xlink:href="#mc2166aeea0" x="134.2475" y="132.190625" style="fill: #e8e4dc; stroke: #e8e4dc; stroke-width: 0.8"/>
      </g>
     </g>
     <g id="text_10">
      <!-- Participatory approach -->
      <g style="fill: #e8e4dc" transform="translate(36.59375 135.23) scale(0.08 -0.08)">
       <defs>
        <path id="DejaVuSans-33" d="M 1259 4147 
L 1259 2394 
L 2053 2394 
Q 2494 2394 2734 2622 
Q 2975 2850 2975 3272 
Q 2975 3691 2734 3919 
Q 2494 4147 2053 4147 
L 1259 4147 
z
M 628 4666 
L 2053 4666 
Q 2838 4666 3239 4311 
Q 3641 3956 3641 3272 
Q 3641 2581 3239 2228 
Q 2838 1875 2053 1875 
L 1259 1875 
L 1259 0 
L 628 0 
L 628 4666 
z
" transform="scale(0.015625)"/>
        <path id="DejaVuSans-55" d="M 2631 2963 
Q 2534 3019 2420 3045 
Q 2306 3072 2169 3072 
Q 1681 3072 1420 2755 
Q 1159 2438 1159 1844 
L 1159 0 
L 581 0 
L 581 3500 
L 1159 3500 
L 1159 2956 
Q 1341 3275 1631 3429 
Q 1922 3584 2338 3584 
Q 2397 3584 2469 3576 
Q 2541 3569 2628 3553 
L 2631 2963 
z
" transform="scale(0.015625)"/>
        <path id="DejaVuSans-5c" d="M 2059 -325 
Q 1816 -950 1584 -1140 
Q 1353 -1331 966 -1331 
L 506 -1331 
L 506 -850 
L 844 -850 
Q 1081 -850 1212 -737 
Q 1344 -625 1503 -206 
L 1606 56 
L 191 3500 
L 800 3500 
L 1894 763 
L 2988 3500 
L 3597 3500 
L 2059 -325 
z
" transform="scale(0.015625)"/>
        <path id="DejaVuSans-4b" d="M 3513 2113 
L 3513 0 
L 2938 0 
L 2938 2094 
Q 2938 2591 2744 2837 
Q 2550 3084 2163 3084 
Q 1697 3084 1428 2787 
Q 1159 2491 1159 1978 
L 1159 0 
L 581 0 
L 581 4863 
L 1159 4863 
L 1159 2956 
Q 1366 3272 1645 3428 
Q 1925 3584 2291 3584 
Q 2894 3584 3203 3211 
Q 3513 2838 3513 2113 
z
" transform="scale(0.015625)"/>
       </defs>
       <use xlink:href="#DejaVuSans-33"/>
       <use xlink:href="#DejaVuSans-44" transform="translate(55.8125 0)"/>
       <use xlink:href="#DejaVuSans-55" transform="translate(117.09375 0)"/>
       <use xlink:href="#DejaVuSans-57" transform="translate(158.203125 0)"/>
       <use xlink:href="#DejaVuSans-4c" transform="translate(197.40625 0)"/>
       <use xlink:href="#DejaVuSans-46" transform="translate(225.1875 0)"/>
       <use xlink:href="#DejaVuSans-4c" transform="translate(280.171875 0)"/>
       <use xlink:href="#DejaVuSans-53" transform="translate(307.953125 0)"/>
       <use xlink:href="#DejaVuSans-44" transform="translate(371.4375 0)"/>
       <use xlink:href="#DejaVuSans-57" transform="translate(432.71875 0)"/>
       <use xlink:href="#DejaVuSans-52" transform="translate(471.921875 0)"/>
       <use xlink:href="#DejaVuSans-55" transform="translate(533.109375 0)"/>
       <use xlink:href="#DejaVuSans-5c" transform="translate(574.21875 0)"/>
       <use xlink:href="#DejaVuSans-3" transform="translate(633.40625 0)"/>
       <use xlink:href="#DejaVuSans-44" transform="translate(665.1875 0)"/>
       <use xlink:href="#DejaVuSans-53" transform="translate(726.46875 0)"/>
       <use xlink:href="#DejaVuSans-53" transform="translate(789.953125 0)"/>
       <use xlink:href="#DejaVuSans-55" transform="translate(853.4375 0)"/>
       <use xlink:href="#DejaVuSans-52" transform="translate(892.34375 0)"/>
       <use xlink:href="#DejaVuSans-44" transform="translate(953.53125 0)"/>
       <use xlink:href="#DejaVuSans-46" transform="translate(1014.8125 0)"/>
       <use xlink:href="#DejaVuSans-4b" transform="translate(1069.796875 0)"/>
      </g>
     </g>
    </g>
    <g id="ytick_4">
     <g id="line2d_10">
      <g>
       <use xlink:href="#mc2166aeea0" x="134.2475" y="90.554632" style="fill: #e8e4dc; stroke: #e8e4dc; stroke-width: 0.8"/>
      </g>
     </g>
     <g id="text_11">
      <!-- Sustainable beyond project -->
      <g style="fill: #e8e4dc" transform="translate(17.8425 93.594007) scale(0.08 -0.08)">
       <defs>
        <path id="DejaVuSans-36" d="M 3425 4513 
L 3425 3897 
Q 3066 4069 2747 4153 
Q 2428 4238 2131 4238 
Q 1616 4238 1336 4038 
Q 1056 3838 1056 3469 
Q 1056 3159 1242 3001 
Q 1428 2844 1947 2747 
L 2328 2669 
Q 3034 2534 3370 2195 
Q 3706 1856 3706 1288 
Q 3706 609 3251 259 
Q 2797 -91 1919 -91 
Q 1588 -91 1214 -16 
Q 841 59 441 206 
L 441 856 
Q 825 641 1194 531 
Q 1563 422 1919 422 
Q 2459 422 2753 634 
Q 3047 847 3047 1241 
Q 3047 1584 2836 1778 
Q 2625 1972 2144 2069 
L 1759 2144 
Q 1053 2284 737 2584 
Q 422 2884 422 3419 
Q 422 4038 858 4394 
Q 1294 4750 2059 4750 
Q 2388 4750 2728 4690 
Q 3069 4631 3425 4513 
z
" transform="scale(0.015625)"/>
        <path id="DejaVuSans-45" d="M 3116 1747 
Q 3116 2381 2855 2742 
Q 2594 3103 2138 3103 
Q 1681 3103 1420 2742 
Q 1159 2381 1159 1747 
Q 1159 1113 1420 752 
Q 1681 391 2138 391 
Q 2594 391 2855 752 
Q 3116 1113 3116 1747 
z
M 1159 2969 
Q 1341 3281 1617 3432 
Q 1894 3584 2278 3584 
Q 2916 3584 3314 3078 
Q 3713 2572 3713 1747 
Q 3713 922 3314 415 
Q 2916 -91 2278 -91 
Q 1894 -91 1617 61 
Q 1341 213 1159 525 
L 1159 0 
L 581 0 
L 581 4863 
L 1159 4863 
L 1159 2969 
z
" transform="scale(0.015625)"/>
        <path id="DejaVuSans-4d" d="M 603 3500 
L 1178 3500 
L 1178 -63 
Q 1178 -731 923 -1031 
Q 669 -1331 103 -1331 
L -116 -1331 
L -116 -844 
L 38 -844 
Q 366 -844 484 -692 
Q 603 -541 603 -63 
L 603 3500 
z
M 603 4863 
L 1178 4863 
L 1178 4134 
L 603 4134 
L 603 4863 
z
" transform="scale(0.015625)"/>
       </defs>
       <use xlink:href="#DejaVuSans-36"/>
       <use xlink:href="#DejaVuSans-58" transform="translate(63.484375 0)"/>
       <use xlink:href="#DejaVuSans-56" transform="translate(126.859375 0)"/>
       <use xlink:href="#DejaVuSans-57" transform="translate(178.953125 0)"/>
       <use xlink:href="#DejaVuSans-44" transform="translate(218.15625 0)"/>
       <use xlink:href="#DejaVuSans-4c" transform="translate(279.4375 0)"/>
       <use xlink:href="#DejaVuSans-51" transform="translate(307.21875 0)"/>
       <use xlink:href="#DejaVuSans-44" transform="translate(370.59375 0)"/>
       <use xlink:href="#DejaVuSans-45" transform="translate(431.875 0)"/>
       <use xlink:href="#DejaVuSans-4f" transform="translate(495.359375 0)"/>
       <use xlink:href="#DejaVuSans-48" transform="translate(523.140625 0)"/>
       <use xlink:href="#DejaVuSans-3" transform="translate(584.671875 0)"/>
       <use xlink:href="#DejaVuSans-45" transform="translate(616.453125 0)"/>
       <use xlink:href="#DejaVuSans-48" transform="translate(679.9375 0)"/>
       <use xlink:href="#DejaVuSans-5c" transform="translate(741.46875 0)"/>
       <use xlink:href="#DejaVuSans-52" transform="translate(800.65625 0)"/>
       <use xlink:href="#DejaVuSans-51" transform="translate(861.84375 0)"/>
       <use xlink:href="#DejaVuSans-47" transform="translate(925.21875 0)"/>
       <use xlink:href="#DejaVuSans-3" transform="translate(988.703125 0)"/>
       <use xlink:href="#DejaVuSans-53" transform="translate(1020.484375 0)"/>
       <use xlink:href="#DejaVuSans-55" transform="translate(1083.96875 0)"/>
       <use xlink:href="#DejaVuSans-52" transform="translate(1122.875 0)"/>
       <use xlink:href="#DejaVuSans-4d" transform="translate(1184.0625 0)"/>
       <use xlink:href="#DejaVuSans-48" transform="translate(1211.84375 0)"/>
       <use xlink:href="#DejaVuSans-46" transform="translate(1273.375 0)"/>
       <use xlink:href="#DejaVuSans-57" transform="translate(1328.359375 0)"/>
      </g>
     </g>
    </g>
    <g id="ytick_5">
     <g id="line2d_11">
      <g>
       <use xlink:href="#mc2166aeea0" x="134.2475" y="48.918639" style="fill: #e8e4dc; stroke: #e8e4dc; stroke-width: 0.8"/>
      </g>
     </g>
     <g id="text_12">
      <!-- Reaching the most vulnerable -->
      <g style="fill: #e8e4dc" transform="translate(7.2 51.958014) scale(0.08 -0.08)">
       <defs>
        <path id="DejaVuSans-35" d="M 2841 2188 
Q 3044 2119 3236 1894 
Q 3428 1669 3622 1275 
L 4263 0 
L 3584 0 
L 2988 1197 
Q 2756 1666 2539 1819 
Q 2322 1972 1947 1972 
L 1259 1972 
L 1259 0 
L 628 0 
L 628 4666 
L 2053 4666 
Q 2853 4666 3247 4331 
Q 3641 3997 3641 3322 
Q 3641 2881 3436 2590 
Q 3231 2300 2841 2188 
z
M 1259 4147 
L 1259 2491 
L 2053 2491 
Q 2509 2491 2742 2702 
Q 2975 2913 2975 3322 
Q 2975 3731 2742 3939 
Q 2509 4147 2053 4147 
L 1259 4147 
z
" transform="scale(0.015625)"/>
        <path id="DejaVuSans-4a" d="M 2906 1791 
Q 2906 2416 2648 2759 
Q 2391 3103 1925 3103 
Q 1463 3103 1205 2759 
Q 947 2416 947 1791 
Q 947 1169 1205 825 
Q 1463 481 1925 481 
Q 2391 481 2648 825 
Q 2906 1169 2906 1791 
z
M 3481 434 
Q 3481 -459 3084 -895 
Q 2688 -1331 1869 -1331 
Q 1566 -1331 1297 -1286 
Q 1028 -1241 775 -1147 
L 775 -588 
Q 1028 -725 1275 -790 
Q 1522 -856 1778 -856 
Q 2344 -856 2625 -561 
Q 2906 -266 2906 331 
L 2906 616 
Q 2728 306 2450 153 
Q 2172 0 1784 0 
Q 1141 0 747 490 
Q 353 981 353 1791 
Q 353 2603 747 3093 
Q 1141 3584 1784 3584 
Q 2172 3584 2450 3431 
Q 2728 3278 2906 2969 
L 2906 3500 
L 3481 3500 
L 3481 434 
z
" transform="scale(0.015625)"/>
        <path id="DejaVuSans-59" d="M 191 3500 
L 800 3500 
L 1894 563 
L 2988 3500 
L 3597 3500 
L 2284 0 
L 1503 0 
L 191 3500 
z
" transform="scale(0.015625)"/>
       </defs>
       <use xlink:href="#DejaVuSans-35"/>
       <use xlink:href="#DejaVuSans-48" transform="translate(65 0)"/>
       <use xlink:href="#DejaVuSans-44" transform="translate(126.53125 0)"/>
       <use xlink:href="#DejaVuSans-46" transform="translate(187.8125 0)"/>
       <use xlink:href="#DejaVuSans-4b" transform="translate(242.796875 0)"/>
       <use xlink:href="#DejaVuSans-4c" transform="translate(306.171875 0)"/>
       <use xlink:href="#DejaVuSans-51" transform="translate(333.953125 0)"/>
       <use xlink:href="#DejaVuSans-4a" transform="translate(397.328125 0)"/>
       <use xlink:href="#DejaVuSans-3" transform="translate(460.8125 0)"/>
       <use xlink:href="#DejaVuSans-57" transform="translate(492.59375 0)"/>
       <use xlink:href="#DejaVuSans-4b" transform="translate(531.796875 0)"/>
       <use xlink:href="#DejaVuSans-48" transform="translate(595.171875 0)"/>
       <use xlink:href="#DejaVuSans-3" transform="translate(656.703125 0)"/>
       <use xlink:href="#DejaVuSans-50" transform="translate(688.484375 0)"/>
       <use xlink:href="#DejaVuSans-52" transform="translate(785.890625 0)"/>
       <use xlink:href="#DejaVuSans-56" transform="translate(847.078125 0)"/>
       <use xlink:href="#DejaVuSans-57" transform="translate(899.171875 0)"/>
       <use xlink:href="#DejaVuSans-3" transform="translate(938.375 0)"/>
       <use xlink:href="#DejaVuSans-59" transform="translate(970.15625 0)"/>
       <use xlink:href="#DejaVuSans-58" transform="translate(1029.34375 0)"/>
       <use xlink:href="#DejaVuSans-4f" transform="translate(1092.71875 0)"/>
       <use xlink:href="#DejaVuSans-51" transform="translate(1120.5 0)"/>
       <use xlink:href="#DejaVuSans-48" transform="translate(1183.875 0)"/>
       <use xlink:href="#DejaVuSans-55" transform="translate(1245.40625 0)"/>
       <use xlink:href="#DejaVuSans-44" transform="translate(1286.515625 0)"/>
       <use xlink:href="#DejaVuSans-45" transform="translate(1347.796875 0)"/>
       <use xlink:href="#DejaVuSans-4f" transform="translate(1411.28125 0)"/>
       <use xlink:href="#DejaVuSans-48" transform="translate(1439.0625 0)"/>
      </g>
     </g>
    </g>
   </g>
   <g id="patch_8">
    <path d="M 134.2475 237.529688 
L 134.2475 26.851563 
" style="fill: none; stroke: #2a2a2e; stroke-width: 0.8; stroke-linejoin: miter; stroke-linecap: square"/>
   </g>
   <g id="patch_9">
    <path d="M 551.2075 237.529688 
L 551.2075 26.851563 
" style="fill: none; stroke: #2a2a2e; stroke-width: 0.8; stroke-linejoin: miter; stroke-linecap: square"/>
   </g>
   <g id="patch_10">
    <path d="M 134.2475 237.529688 
L 551.2075 237.529688 
" style="fill: none; stroke: #2a2a2e; stroke-width: 0.8; stroke-linejoin: miter; stroke-linecap: square"/>
   </g>
   <g id="patch_11">
    <path d="M 134.2475 26.851563 
L 551.2075 26.851563 
" style="fill: none; stroke: #2a2a2e; stroke-width: 0.8; stroke-linejoin: miter; stroke-linecap: square"/>
   </g>
   <g id="text_13">
    <!-- 12 -->
    <g style="fill: #e8e4dc" transform="translate(328.145723 217.800502) scale(0.09 -0.09)">
     <defs>
      <path id="DejaVuSansMono-14" d="M 844 531 
L 1825 531 
L 1825 4097 
L 769 3859 
L 769 4434 
L 1819 4666 
L 2450 4666 
L 2450 531 
L 3419 531 
L 3419 0 
L 844 0 
L 844 531 
z
" transform="scale(0.015625)"/>
      <path id="DejaVuSansMono-15" d="M 1166 531 
L 3309 531 
L 3309 0 
L 475 0 
L 475 531 
Q 1059 1147 1496 1619 
Q 1934 2091 2100 2284 
Q 2413 2666 2522 2902 
Q 2631 3138 2631 3384 
Q 2631 3775 2401 3997 
Q 2172 4219 1772 4219 
Q 1488 4219 1175 4116 
Q 863 4013 513 3803 
L 513 4441 
Q 834 4594 1145 4672 
Q 1456 4750 1759 4750 
Q 2444 4750 2861 4386 
Q 3278 4022 3278 3431 
Q 3278 3131 3139 2831 
Q 3000 2531 2688 2169 
Q 2513 1966 2180 1606 
Q 1847 1247 1166 531 
z
" transform="scale(0.015625)"/>
     </defs>
     <use xlink:href="#DejaVuSansMono-14"/>
     <use xlink:href="#DejaVuSansMono-15" transform="translate(60.203125 0)"/>
    </g>
   </g>
   <g id="text_14">
    <!-- 23 -->
    <g style="fill: #e8e4dc" transform="translate(501.550638 176.164509) scale(0.09 -0.09)">
     <defs>
      <path id="DejaVuSansMono-16" d="M 2425 2497 
Q 2884 2375 3128 2064 
Q 3372 1753 3372 1288 
Q 3372 644 2939 276 
Q 2506 -91 1741 -91 
Q 1419 -91 1084 -31 
Q 750 28 428 141 
L 428 769 
Q 747 603 1056 522 
Q 1366 441 1672 441 
Q 2191 441 2469 675 
Q 2747 909 2747 1350 
Q 2747 1756 2469 1995 
Q 2191 2234 1716 2234 
L 1234 2234 
L 1234 2753 
L 1716 2753 
Q 2150 2753 2394 2943 
Q 2638 3134 2638 3475 
Q 2638 3834 2411 4026 
Q 2184 4219 1766 4219 
Q 1488 4219 1191 4156 
Q 894 4094 569 3969 
L 569 4550 
Q 947 4650 1242 4700 
Q 1538 4750 1766 4750 
Q 2447 4750 2855 4408 
Q 3263 4066 3263 3500 
Q 3263 3116 3048 2859 
Q 2834 2603 2425 2497 
z
" transform="scale(0.015625)"/>
     </defs>
     <use xlink:href="#DejaVuSansMono-15"/>
     <use xlink:href="#DejaVuSansMono-16" transform="translate(60.203125 0)"/>
    </g>
   </g>
   <g id="text_15">
    <!-- 19 -->
    <g style="fill: #e8e4dc" transform="translate(438.494305 134.528516) scale(0.09 -0.09)">
     <defs>
      <path id="DejaVuSansMono-1c" d="M 1863 2069 
Q 2266 2069 2495 2359 
Q 2725 2650 2725 3163 
Q 2725 3675 2495 3965 
Q 2266 4256 1863 4256 
Q 1444 4256 1231 3979 
Q 1019 3703 1019 3163 
Q 1019 2619 1230 2344 
Q 1441 2069 1863 2069 
z
M 738 97 
L 738 678 
Q 934 563 1156 502 
Q 1378 441 1619 441 
Q 2219 441 2526 892 
Q 2834 1344 2834 2222 
Q 2688 1909 2422 1742 
Q 2156 1575 1813 1575 
Q 1138 1575 767 1990 
Q 397 2406 397 3169 
Q 397 3922 776 4336 
Q 1156 4750 1850 4750 
Q 2663 4750 3041 4165 
Q 3419 3581 3419 2328 
Q 3419 1150 2964 529 
Q 2509 -91 1644 -91 
Q 1416 -91 1184 -42 
Q 953 6 738 97 
z
" transform="scale(0.015625)"/>
     </defs>
     <use xlink:href="#DejaVuSansMono-14"/>
     <use xlink:href="#DejaVuSansMono-1c" transform="translate(60.203125 0)"/>
    </g>
   </g>
   <g id="text_16">
    <!-- 10 -->
    <g style="fill: #e8e4dc" transform="translate(296.617557 92.892523) scale(0.09 -0.09)">
     <defs>
      <path id="DejaVuSansMono-13" d="M 1509 2344 
Q 1509 2516 1629 2641 
Q 1750 2766 1919 2766 
Q 2094 2766 2219 2641 
Q 2344 2516 2344 2344 
Q 2344 2169 2220 2047 
Q 2097 1925 1919 1925 
Q 1744 1925 1626 2044 
Q 1509 2163 1509 2344 
z
M 1925 4250 
Q 1484 4250 1267 3775 
Q 1050 3300 1050 2328 
Q 1050 1359 1267 884 
Q 1484 409 1925 409 
Q 2369 409 2586 884 
Q 2803 1359 2803 2328 
Q 2803 3300 2586 3775 
Q 2369 4250 1925 4250 
z
M 1925 4750 
Q 2672 4750 3055 4137 
Q 3438 3525 3438 2328 
Q 3438 1134 3055 521 
Q 2672 -91 1925 -91 
Q 1178 -91 797 521 
Q 416 1134 416 2328 
Q 416 3525 797 4137 
Q 1178 4750 1925 4750 
z
" transform="scale(0.015625)"/>
     </defs>
     <use xlink:href="#DejaVuSansMono-14"/>
     <use xlink:href="#DejaVuSansMono-13" transform="translate(60.203125 0)"/>
    </g>
   </g>
   <g id="text_17">
    <!-- 15 -->
    <g style="fill: #e8e4dc" transform="translate(375.437973 51.256529) scale(0.09 -0.09)">
     <defs>
      <path id="DejaVuSansMono-18" d="M 647 4666 
L 3009 4666 
L 3009 4134 
L 1222 4134 
L 1222 2988 
Q 1356 3038 1492 3061 
Q 1628 3084 1766 3084 
Q 2491 3084 2916 2656 
Q 3341 2228 3341 1497 
Q 3341 759 2895 334 
Q 2450 -91 1678 -91 
Q 1306 -91 998 -41 
Q 691 9 447 109 
L 447 750 
Q 734 594 1025 517 
Q 1316 441 1619 441 
Q 2141 441 2423 716 
Q 2706 991 2706 1497 
Q 2706 1997 2414 2275 
Q 2122 2553 1600 2553 
Q 1347 2553 1106 2495 
Q 866 2438 647 2322 
L 647 4666 
z
" transform="scale(0.015625)"/>
     </defs>
     <use xlink:href="#DejaVuSansMono-14"/>
     <use xlink:href="#DejaVuSansMono-18" transform="translate(60.203125 0)"/>
    </g>
   </g>
   <g id="text_18">
    <!-- Promise frequency across all documents -->
    <g style="fill: #e8e4dc" transform="translate(228.341562 14.851563) scale(0.1 -0.1)">
     <defs>
      <path id="DejaVuSansMono-33" d="M 1247 4147 
L 1247 2394 
L 1978 2394 
Q 2416 2394 2661 2625 
Q 2906 2856 2906 3272 
Q 2906 3688 2662 3917 
Q 2419 4147 1978 4147 
L 1247 4147 
z
M 616 4666 
L 1978 4666 
Q 2759 4666 3162 4311 
Q 3566 3956 3566 3272 
Q 3566 2581 3164 2228 
Q 2763 1875 1978 1875 
L 1247 1875 
L 1247 0 
L 616 0 
L 616 4666 
z
" transform="scale(0.015625)"/>
      <path id="DejaVuSansMono-54" d="M 1038 1734 
Q 1038 1066 1248 725 
Q 1459 384 1875 384 
Q 2291 384 2505 726 
Q 2719 1069 2719 1734 
Q 2719 2400 2505 2742 
Q 2291 3084 1875 3084 
Q 1459 3084 1248 2743 
Q 1038 2403 1038 1734 
z
M 2719 434 
Q 2578 175 2339 36 
Q 2100 -103 1784 -103 
Q 1156 -103 792 383 
Q 428 869 428 1722 
Q 428 2591 790 3081 
Q 1153 3572 1784 3572 
Q 2097 3572 2336 3436 
Q 2575 3300 2719 3041 
L 2719 3488 
L 3297 3488 
L 3297 -1344 
L 2719 -1344 
L 2719 434 
z
" transform="scale(0.015625)"/>
      <path id="DejaVuSansMono-5c" d="M 2681 1125 
Q 2538 759 2316 163 
Q 2006 -663 1900 -844 
Q 1756 -1088 1540 -1209 
Q 1325 -1331 1038 -1331 
L 575 -1331 
L 575 -850 
L 916 -850 
Q 1169 -850 1312 -703 
Q 1456 -556 1678 56 
L 325 3500 
L 934 3500 
L 1972 763 
L 2994 3500 
L 3603 3500 
L 2681 1125 
z
" transform="scale(0.015625)"/>
      <path id="DejaVuSansMono-4f" d="M 1997 1269 
Q 1997 881 2139 684 
Q 2281 488 2559 488 
L 3231 488 
L 3231 0 
L 2503 0 
Q 1988 0 1705 331 
Q 1422 663 1422 1269 
L 1422 4447 
L 500 4447 
L 500 4897 
L 1997 4897 
L 1997 1269 
z
" transform="scale(0.015625)"/>
      <path id="DejaVuSansMono-47" d="M 2681 3053 
L 2681 4863 
L 3256 4863 
L 3256 0 
L 2681 0 
L 2681 441 
Q 2538 181 2298 45 
Q 2059 -91 1747 -91 
Q 1113 -91 748 401 
Q 384 894 384 1759 
Q 384 2613 750 3098 
Q 1116 3584 1747 3584 
Q 2063 3584 2303 3448 
Q 2544 3313 2681 3053 
z
M 991 1747 
Q 991 1078 1203 737 
Q 1416 397 1831 397 
Q 2247 397 2464 740 
Q 2681 1084 2681 1747 
Q 2681 2413 2464 2755 
Q 2247 3097 1831 3097 
Q 1416 3097 1203 2756 
Q 991 2416 991 1747 
z
" transform="scale(0.015625)"/>
     </defs>
     <use xlink:href="#DejaVuSansMono-33"/>
     <use xlink:href="#DejaVuSansMono-55" transform="translate(60.203125 0)"/>
     <use xlink:href="#DejaVuSansMono-52" transform="translate(120.40625 0)"/>
     <use xlink:href="#DejaVuSansMono-50" transform="translate(180.609375 0)"/>
     <use xlink:href="#DejaVuSansMono-4c" transform="translate(240.8125 0)"/>
     <use xlink:href="#DejaVuSansMono-56" transform="translate(301.015625 0)"/>
     <use xlink:href="#DejaVuSansMono-48" transform="translate(361.21875 0)"/>
     <use xlink:href="#DejaVuSansMono-3" transform="translate(421.421875 0)"/>
     <use xlink:href="#DejaVuSansMono-49" transform="translate(481.625 0)"/>
     <use xlink:href="#DejaVuSansMono-55" transform="translate(541.828125 0)"/>
     <use xlink:href="#DejaVuSansMono-48" transform="translate(602.03125 0)"/>
     <use xlink:href="#DejaVuSansMono-54" transform="translate(662.234375 0)"/>
     <use xlink:href="#DejaVuSansMono-58" transform="translate(722.4375 0)"/>
     <use xlink:href="#DejaVuSansMono-48" transform="translate(782.640625 0)"/>
     <use xlink:href="#DejaVuSansMono-51" transform="translate(842.84375 0)"/>
     <use xlink:href="#DejaVuSansMono-46" transform="translate(903.046875 0)"/>
     <use xlink:href="#DejaVuSansMono-5c" transform="translate(963.25 0)"/>
     <use xlink:href="#DejaVuSansMono-3" transform="translate(1023.453125 0)"/>
     <use xlink:href="#DejaVuSansMono-44" transform="translate(1083.65625 0)"/>
     <use xlink:href="#DejaVuSansMono-46" transform="translate(1143.859375 0)"/>
     <use xlink:href="#DejaVuSansMono-55" transform="translate(1204.0625 0)"/>
     <use xlink:href="#DejaVuSansMono-52" transform="translate(1264.265625 0)"/>
     <use xlink:href="#DejaVuSansMono-56" transform="translate(1324.46875 0)"/>
     <use xlink:href="#DejaVuSansMono-56" transform="translate(1384.671875 0)"/>
     <use xlink:href="#DejaVuSansMono-3" transform="translate(1444.875 0)"/>
     <use xlink:href="#DejaVuSansMono-44" transform="translate(1505.078125 0)"/>
     <use xlink:href="#DejaVuSansMono-4f" transform="translate(1565.28125 0)"/>
     <use xlink:href="#DejaVuSansMono-4f" transform="translate(1625.484375 0)"/>
     <use xlink:href="#DejaVuSansMono-3" transform="translate(1685.6875 0)"/>
     <use xlink:href="#DejaVuSansMono-47" transform="translate(1745.890625 0)"/>
     <use xlink:href="#DejaVuSansMono-52" transform="translate(1806.09375 0)"/>
     <use xlink:href="#DejaVuSansMono-46" transform="translate(1866.296875 0)"/>
     <use xlink:href="#DejaVuSansMono-58" transform="translate(1926.5 0)"/>
     <use xlink:href="#DejaVuSansMono-50" transform="translate(1986.703125 0)"/>
     <use xlink:href="#DejaVuSansMono-48" transform="translate(2046.90625 0)"/>
     <use xlink:href="#DejaVuSansMono-51" transform="translate(2107.109375 0)"/>
     <use xlink:href="#DejaVuSansMono-57" transform="translate(2167.3125 0)"/>
     <use xlink:href="#DejaVuSansMono-56" transform="translate(2227.515625 0)"/>
    </g>
   </g>
  </g>
 </g>
 <defs>
  <clipPath id="p35e8845992">
   <rect x="134.2475" y="26.851563" width="416.96" height="210.678125"/>
  </clipPath>
 </defs>
</svg>
